%TF.GenerationSoftware,KiCad,Pcbnew,7.0.1-3b83917a11~172~ubuntu20.04.1*%
%TF.CreationDate,2023-04-17T17:43:15+05:30*%
%TF.ProjectId,motor controller,6d6f746f-7220-4636-9f6e-74726f6c6c65,rev?*%
%TF.SameCoordinates,Original*%
%TF.FileFunction,Legend,Top*%
%TF.FilePolarity,Positive*%
%FSLAX46Y46*%
G04 Gerber Fmt 4.6, Leading zero omitted, Abs format (unit mm)*
G04 Created by KiCad (PCBNEW 7.0.1-3b83917a11~172~ubuntu20.04.1) date 2023-04-17 17:43:15*
%MOMM*%
%LPD*%
G01*
G04 APERTURE LIST*
%ADD10C,0.150000*%
%ADD11C,0.175000*%
%ADD12C,0.120000*%
G04 APERTURE END LIST*
D10*
X91738095Y-60877619D02*
X91738095Y-59877619D01*
X92166666Y-59972857D02*
X92214285Y-59925238D01*
X92214285Y-59925238D02*
X92309523Y-59877619D01*
X92309523Y-59877619D02*
X92547618Y-59877619D01*
X92547618Y-59877619D02*
X92642856Y-59925238D01*
X92642856Y-59925238D02*
X92690475Y-59972857D01*
X92690475Y-59972857D02*
X92738094Y-60068095D01*
X92738094Y-60068095D02*
X92738094Y-60163333D01*
X92738094Y-60163333D02*
X92690475Y-60306190D01*
X92690475Y-60306190D02*
X92119047Y-60877619D01*
X92119047Y-60877619D02*
X92738094Y-60877619D01*
X93738094Y-60782380D02*
X93690475Y-60830000D01*
X93690475Y-60830000D02*
X93547618Y-60877619D01*
X93547618Y-60877619D02*
X93452380Y-60877619D01*
X93452380Y-60877619D02*
X93309523Y-60830000D01*
X93309523Y-60830000D02*
X93214285Y-60734761D01*
X93214285Y-60734761D02*
X93166666Y-60639523D01*
X93166666Y-60639523D02*
X93119047Y-60449047D01*
X93119047Y-60449047D02*
X93119047Y-60306190D01*
X93119047Y-60306190D02*
X93166666Y-60115714D01*
X93166666Y-60115714D02*
X93214285Y-60020476D01*
X93214285Y-60020476D02*
X93309523Y-59925238D01*
X93309523Y-59925238D02*
X93452380Y-59877619D01*
X93452380Y-59877619D02*
X93547618Y-59877619D01*
X93547618Y-59877619D02*
X93690475Y-59925238D01*
X93690475Y-59925238D02*
X93738094Y-59972857D01*
X113738095Y-107377619D02*
X113738095Y-106377619D01*
X114785713Y-107282380D02*
X114738094Y-107330000D01*
X114738094Y-107330000D02*
X114595237Y-107377619D01*
X114595237Y-107377619D02*
X114499999Y-107377619D01*
X114499999Y-107377619D02*
X114357142Y-107330000D01*
X114357142Y-107330000D02*
X114261904Y-107234761D01*
X114261904Y-107234761D02*
X114214285Y-107139523D01*
X114214285Y-107139523D02*
X114166666Y-106949047D01*
X114166666Y-106949047D02*
X114166666Y-106806190D01*
X114166666Y-106806190D02*
X114214285Y-106615714D01*
X114214285Y-106615714D02*
X114261904Y-106520476D01*
X114261904Y-106520476D02*
X114357142Y-106425238D01*
X114357142Y-106425238D02*
X114499999Y-106377619D01*
X114499999Y-106377619D02*
X114595237Y-106377619D01*
X114595237Y-106377619D02*
X114738094Y-106425238D01*
X114738094Y-106425238D02*
X114785713Y-106472857D01*
X115166666Y-107330000D02*
X115309523Y-107377619D01*
X115309523Y-107377619D02*
X115547618Y-107377619D01*
X115547618Y-107377619D02*
X115642856Y-107330000D01*
X115642856Y-107330000D02*
X115690475Y-107282380D01*
X115690475Y-107282380D02*
X115738094Y-107187142D01*
X115738094Y-107187142D02*
X115738094Y-107091904D01*
X115738094Y-107091904D02*
X115690475Y-106996666D01*
X115690475Y-106996666D02*
X115642856Y-106949047D01*
X115642856Y-106949047D02*
X115547618Y-106901428D01*
X115547618Y-106901428D02*
X115357142Y-106853809D01*
X115357142Y-106853809D02*
X115261904Y-106806190D01*
X115261904Y-106806190D02*
X115214285Y-106758571D01*
X115214285Y-106758571D02*
X115166666Y-106663333D01*
X115166666Y-106663333D02*
X115166666Y-106568095D01*
X115166666Y-106568095D02*
X115214285Y-106472857D01*
X115214285Y-106472857D02*
X115261904Y-106425238D01*
X115261904Y-106425238D02*
X115357142Y-106377619D01*
X115357142Y-106377619D02*
X115595237Y-106377619D01*
X115595237Y-106377619D02*
X115738094Y-106425238D01*
X116166666Y-107377619D02*
X116166666Y-106377619D01*
X116166666Y-106377619D02*
X116547618Y-106377619D01*
X116547618Y-106377619D02*
X116642856Y-106425238D01*
X116642856Y-106425238D02*
X116690475Y-106472857D01*
X116690475Y-106472857D02*
X116738094Y-106568095D01*
X116738094Y-106568095D02*
X116738094Y-106710952D01*
X116738094Y-106710952D02*
X116690475Y-106806190D01*
X116690475Y-106806190D02*
X116642856Y-106853809D01*
X116642856Y-106853809D02*
X116547618Y-106901428D01*
X116547618Y-106901428D02*
X116166666Y-106901428D01*
X109738095Y-61377619D02*
X109738095Y-60377619D01*
X109738095Y-60377619D02*
X110071428Y-61091904D01*
X110071428Y-61091904D02*
X110404761Y-60377619D01*
X110404761Y-60377619D02*
X110404761Y-61377619D01*
X111071428Y-60377619D02*
X111261904Y-60377619D01*
X111261904Y-60377619D02*
X111357142Y-60425238D01*
X111357142Y-60425238D02*
X111452380Y-60520476D01*
X111452380Y-60520476D02*
X111499999Y-60710952D01*
X111499999Y-60710952D02*
X111499999Y-61044285D01*
X111499999Y-61044285D02*
X111452380Y-61234761D01*
X111452380Y-61234761D02*
X111357142Y-61330000D01*
X111357142Y-61330000D02*
X111261904Y-61377619D01*
X111261904Y-61377619D02*
X111071428Y-61377619D01*
X111071428Y-61377619D02*
X110976190Y-61330000D01*
X110976190Y-61330000D02*
X110880952Y-61234761D01*
X110880952Y-61234761D02*
X110833333Y-61044285D01*
X110833333Y-61044285D02*
X110833333Y-60710952D01*
X110833333Y-60710952D02*
X110880952Y-60520476D01*
X110880952Y-60520476D02*
X110976190Y-60425238D01*
X110976190Y-60425238D02*
X111071428Y-60377619D01*
X111785714Y-60377619D02*
X112357142Y-60377619D01*
X112071428Y-61377619D02*
X112071428Y-60377619D01*
X112880952Y-60377619D02*
X113071428Y-60377619D01*
X113071428Y-60377619D02*
X113166666Y-60425238D01*
X113166666Y-60425238D02*
X113261904Y-60520476D01*
X113261904Y-60520476D02*
X113309523Y-60710952D01*
X113309523Y-60710952D02*
X113309523Y-61044285D01*
X113309523Y-61044285D02*
X113261904Y-61234761D01*
X113261904Y-61234761D02*
X113166666Y-61330000D01*
X113166666Y-61330000D02*
X113071428Y-61377619D01*
X113071428Y-61377619D02*
X112880952Y-61377619D01*
X112880952Y-61377619D02*
X112785714Y-61330000D01*
X112785714Y-61330000D02*
X112690476Y-61234761D01*
X112690476Y-61234761D02*
X112642857Y-61044285D01*
X112642857Y-61044285D02*
X112642857Y-60710952D01*
X112642857Y-60710952D02*
X112690476Y-60520476D01*
X112690476Y-60520476D02*
X112785714Y-60425238D01*
X112785714Y-60425238D02*
X112880952Y-60377619D01*
X114309523Y-61377619D02*
X113976190Y-60901428D01*
X113738095Y-61377619D02*
X113738095Y-60377619D01*
X113738095Y-60377619D02*
X114119047Y-60377619D01*
X114119047Y-60377619D02*
X114214285Y-60425238D01*
X114214285Y-60425238D02*
X114261904Y-60472857D01*
X114261904Y-60472857D02*
X114309523Y-60568095D01*
X114309523Y-60568095D02*
X114309523Y-60710952D01*
X114309523Y-60710952D02*
X114261904Y-60806190D01*
X114261904Y-60806190D02*
X114214285Y-60853809D01*
X114214285Y-60853809D02*
X114119047Y-60901428D01*
X114119047Y-60901428D02*
X113738095Y-60901428D01*
X115452381Y-60472857D02*
X115500000Y-60425238D01*
X115500000Y-60425238D02*
X115595238Y-60377619D01*
X115595238Y-60377619D02*
X115833333Y-60377619D01*
X115833333Y-60377619D02*
X115928571Y-60425238D01*
X115928571Y-60425238D02*
X115976190Y-60472857D01*
X115976190Y-60472857D02*
X116023809Y-60568095D01*
X116023809Y-60568095D02*
X116023809Y-60663333D01*
X116023809Y-60663333D02*
X115976190Y-60806190D01*
X115976190Y-60806190D02*
X115404762Y-61377619D01*
X115404762Y-61377619D02*
X116023809Y-61377619D01*
D11*
X62708046Y-64404761D02*
X64408046Y-64404761D01*
X64408046Y-64404761D02*
X63193760Y-64971428D01*
X63193760Y-64971428D02*
X64408046Y-65538095D01*
X64408046Y-65538095D02*
X62708046Y-65538095D01*
X64408046Y-66671428D02*
X64408046Y-66995237D01*
X64408046Y-66995237D02*
X64327094Y-67157142D01*
X64327094Y-67157142D02*
X64165189Y-67319047D01*
X64165189Y-67319047D02*
X63841379Y-67399999D01*
X63841379Y-67399999D02*
X63274713Y-67399999D01*
X63274713Y-67399999D02*
X62950903Y-67319047D01*
X62950903Y-67319047D02*
X62788999Y-67157142D01*
X62788999Y-67157142D02*
X62708046Y-66995237D01*
X62708046Y-66995237D02*
X62708046Y-66671428D01*
X62708046Y-66671428D02*
X62788999Y-66509523D01*
X62788999Y-66509523D02*
X62950903Y-66347618D01*
X62950903Y-66347618D02*
X63274713Y-66266666D01*
X63274713Y-66266666D02*
X63841379Y-66266666D01*
X63841379Y-66266666D02*
X64165189Y-66347618D01*
X64165189Y-66347618D02*
X64327094Y-66509523D01*
X64327094Y-66509523D02*
X64408046Y-66671428D01*
X64408046Y-67885713D02*
X64408046Y-68857142D01*
X62708046Y-68371428D02*
X64408046Y-68371428D01*
X64408046Y-69747618D02*
X64408046Y-70071427D01*
X64408046Y-70071427D02*
X64327094Y-70233332D01*
X64327094Y-70233332D02*
X64165189Y-70395237D01*
X64165189Y-70395237D02*
X63841379Y-70476189D01*
X63841379Y-70476189D02*
X63274713Y-70476189D01*
X63274713Y-70476189D02*
X62950903Y-70395237D01*
X62950903Y-70395237D02*
X62788999Y-70233332D01*
X62788999Y-70233332D02*
X62708046Y-70071427D01*
X62708046Y-70071427D02*
X62708046Y-69747618D01*
X62708046Y-69747618D02*
X62788999Y-69585713D01*
X62788999Y-69585713D02*
X62950903Y-69423808D01*
X62950903Y-69423808D02*
X63274713Y-69342856D01*
X63274713Y-69342856D02*
X63841379Y-69342856D01*
X63841379Y-69342856D02*
X64165189Y-69423808D01*
X64165189Y-69423808D02*
X64327094Y-69585713D01*
X64327094Y-69585713D02*
X64408046Y-69747618D01*
X62708046Y-72176189D02*
X63517570Y-71609522D01*
X62708046Y-71204760D02*
X64408046Y-71204760D01*
X64408046Y-71204760D02*
X64408046Y-71852379D01*
X64408046Y-71852379D02*
X64327094Y-72014284D01*
X64327094Y-72014284D02*
X64246141Y-72095237D01*
X64246141Y-72095237D02*
X64084237Y-72176189D01*
X64084237Y-72176189D02*
X63841379Y-72176189D01*
X63841379Y-72176189D02*
X63679475Y-72095237D01*
X63679475Y-72095237D02*
X63598522Y-72014284D01*
X63598522Y-72014284D02*
X63517570Y-71852379D01*
X63517570Y-71852379D02*
X63517570Y-71204760D01*
X62869951Y-75171427D02*
X62788999Y-75090475D01*
X62788999Y-75090475D02*
X62708046Y-74847617D01*
X62708046Y-74847617D02*
X62708046Y-74685713D01*
X62708046Y-74685713D02*
X62788999Y-74442856D01*
X62788999Y-74442856D02*
X62950903Y-74280951D01*
X62950903Y-74280951D02*
X63112808Y-74199998D01*
X63112808Y-74199998D02*
X63436618Y-74119046D01*
X63436618Y-74119046D02*
X63679475Y-74119046D01*
X63679475Y-74119046D02*
X64003284Y-74199998D01*
X64003284Y-74199998D02*
X64165189Y-74280951D01*
X64165189Y-74280951D02*
X64327094Y-74442856D01*
X64327094Y-74442856D02*
X64408046Y-74685713D01*
X64408046Y-74685713D02*
X64408046Y-74847617D01*
X64408046Y-74847617D02*
X64327094Y-75090475D01*
X64327094Y-75090475D02*
X64246141Y-75171427D01*
X64408046Y-76223808D02*
X64408046Y-76547617D01*
X64408046Y-76547617D02*
X64327094Y-76709522D01*
X64327094Y-76709522D02*
X64165189Y-76871427D01*
X64165189Y-76871427D02*
X63841379Y-76952379D01*
X63841379Y-76952379D02*
X63274713Y-76952379D01*
X63274713Y-76952379D02*
X62950903Y-76871427D01*
X62950903Y-76871427D02*
X62788999Y-76709522D01*
X62788999Y-76709522D02*
X62708046Y-76547617D01*
X62708046Y-76547617D02*
X62708046Y-76223808D01*
X62708046Y-76223808D02*
X62788999Y-76061903D01*
X62788999Y-76061903D02*
X62950903Y-75899998D01*
X62950903Y-75899998D02*
X63274713Y-75819046D01*
X63274713Y-75819046D02*
X63841379Y-75819046D01*
X63841379Y-75819046D02*
X64165189Y-75899998D01*
X64165189Y-75899998D02*
X64327094Y-76061903D01*
X64327094Y-76061903D02*
X64408046Y-76223808D01*
X62708046Y-77680950D02*
X64408046Y-77680950D01*
X64408046Y-77680950D02*
X62708046Y-78652379D01*
X62708046Y-78652379D02*
X64408046Y-78652379D01*
X64408046Y-79219045D02*
X64408046Y-80190474D01*
X62708046Y-79704760D02*
X64408046Y-79704760D01*
X62708046Y-81728569D02*
X63517570Y-81161902D01*
X62708046Y-80757140D02*
X64408046Y-80757140D01*
X64408046Y-80757140D02*
X64408046Y-81404759D01*
X64408046Y-81404759D02*
X64327094Y-81566664D01*
X64327094Y-81566664D02*
X64246141Y-81647617D01*
X64246141Y-81647617D02*
X64084237Y-81728569D01*
X64084237Y-81728569D02*
X63841379Y-81728569D01*
X63841379Y-81728569D02*
X63679475Y-81647617D01*
X63679475Y-81647617D02*
X63598522Y-81566664D01*
X63598522Y-81566664D02*
X63517570Y-81404759D01*
X63517570Y-81404759D02*
X63517570Y-80757140D01*
X64408046Y-82780950D02*
X64408046Y-83104759D01*
X64408046Y-83104759D02*
X64327094Y-83266664D01*
X64327094Y-83266664D02*
X64165189Y-83428569D01*
X64165189Y-83428569D02*
X63841379Y-83509521D01*
X63841379Y-83509521D02*
X63274713Y-83509521D01*
X63274713Y-83509521D02*
X62950903Y-83428569D01*
X62950903Y-83428569D02*
X62788999Y-83266664D01*
X62788999Y-83266664D02*
X62708046Y-83104759D01*
X62708046Y-83104759D02*
X62708046Y-82780950D01*
X62708046Y-82780950D02*
X62788999Y-82619045D01*
X62788999Y-82619045D02*
X62950903Y-82457140D01*
X62950903Y-82457140D02*
X63274713Y-82376188D01*
X63274713Y-82376188D02*
X63841379Y-82376188D01*
X63841379Y-82376188D02*
X64165189Y-82457140D01*
X64165189Y-82457140D02*
X64327094Y-82619045D01*
X64327094Y-82619045D02*
X64408046Y-82780950D01*
X62708046Y-85047616D02*
X62708046Y-84238092D01*
X62708046Y-84238092D02*
X64408046Y-84238092D01*
X62708046Y-86423806D02*
X62708046Y-85614282D01*
X62708046Y-85614282D02*
X64408046Y-85614282D01*
X63598522Y-86990472D02*
X63598522Y-87557139D01*
X62708046Y-87799996D02*
X62708046Y-86990472D01*
X62708046Y-86990472D02*
X64408046Y-86990472D01*
X64408046Y-86990472D02*
X64408046Y-87799996D01*
X62708046Y-89499996D02*
X63517570Y-88933329D01*
X62708046Y-88528567D02*
X64408046Y-88528567D01*
X64408046Y-88528567D02*
X64408046Y-89176186D01*
X64408046Y-89176186D02*
X64327094Y-89338091D01*
X64327094Y-89338091D02*
X64246141Y-89419044D01*
X64246141Y-89419044D02*
X64084237Y-89499996D01*
X64084237Y-89499996D02*
X63841379Y-89499996D01*
X63841379Y-89499996D02*
X63679475Y-89419044D01*
X63679475Y-89419044D02*
X63598522Y-89338091D01*
X63598522Y-89338091D02*
X63517570Y-89176186D01*
X63517570Y-89176186D02*
X63517570Y-88528567D01*
X62708046Y-91523805D02*
X64408046Y-91523805D01*
X63598522Y-91523805D02*
X63598522Y-92495234D01*
X62708046Y-92495234D02*
X64408046Y-92495234D01*
X62869951Y-93304757D02*
X62788999Y-93385710D01*
X62788999Y-93385710D02*
X62708046Y-93304757D01*
X62708046Y-93304757D02*
X62788999Y-93223805D01*
X62788999Y-93223805D02*
X62869951Y-93304757D01*
X62869951Y-93304757D02*
X62708046Y-93304757D01*
X63193760Y-94033329D02*
X63193760Y-94842853D01*
X62708046Y-93871424D02*
X64408046Y-94438091D01*
X64408046Y-94438091D02*
X62708046Y-95004758D01*
X62869951Y-95571424D02*
X62788999Y-95652377D01*
X62788999Y-95652377D02*
X62708046Y-95571424D01*
X62708046Y-95571424D02*
X62788999Y-95490472D01*
X62788999Y-95490472D02*
X62869951Y-95571424D01*
X62869951Y-95571424D02*
X62708046Y-95571424D01*
X64408046Y-96138091D02*
X64408046Y-97109520D01*
X62708046Y-96623806D02*
X64408046Y-96623806D01*
D10*
X70238095Y-61377619D02*
X70238095Y-60377619D01*
X70238095Y-60377619D02*
X70571428Y-61091904D01*
X70571428Y-61091904D02*
X70904761Y-60377619D01*
X70904761Y-60377619D02*
X70904761Y-61377619D01*
X71571428Y-60377619D02*
X71761904Y-60377619D01*
X71761904Y-60377619D02*
X71857142Y-60425238D01*
X71857142Y-60425238D02*
X71952380Y-60520476D01*
X71952380Y-60520476D02*
X71999999Y-60710952D01*
X71999999Y-60710952D02*
X71999999Y-61044285D01*
X71999999Y-61044285D02*
X71952380Y-61234761D01*
X71952380Y-61234761D02*
X71857142Y-61330000D01*
X71857142Y-61330000D02*
X71761904Y-61377619D01*
X71761904Y-61377619D02*
X71571428Y-61377619D01*
X71571428Y-61377619D02*
X71476190Y-61330000D01*
X71476190Y-61330000D02*
X71380952Y-61234761D01*
X71380952Y-61234761D02*
X71333333Y-61044285D01*
X71333333Y-61044285D02*
X71333333Y-60710952D01*
X71333333Y-60710952D02*
X71380952Y-60520476D01*
X71380952Y-60520476D02*
X71476190Y-60425238D01*
X71476190Y-60425238D02*
X71571428Y-60377619D01*
X72285714Y-60377619D02*
X72857142Y-60377619D01*
X72571428Y-61377619D02*
X72571428Y-60377619D01*
X73380952Y-60377619D02*
X73571428Y-60377619D01*
X73571428Y-60377619D02*
X73666666Y-60425238D01*
X73666666Y-60425238D02*
X73761904Y-60520476D01*
X73761904Y-60520476D02*
X73809523Y-60710952D01*
X73809523Y-60710952D02*
X73809523Y-61044285D01*
X73809523Y-61044285D02*
X73761904Y-61234761D01*
X73761904Y-61234761D02*
X73666666Y-61330000D01*
X73666666Y-61330000D02*
X73571428Y-61377619D01*
X73571428Y-61377619D02*
X73380952Y-61377619D01*
X73380952Y-61377619D02*
X73285714Y-61330000D01*
X73285714Y-61330000D02*
X73190476Y-61234761D01*
X73190476Y-61234761D02*
X73142857Y-61044285D01*
X73142857Y-61044285D02*
X73142857Y-60710952D01*
X73142857Y-60710952D02*
X73190476Y-60520476D01*
X73190476Y-60520476D02*
X73285714Y-60425238D01*
X73285714Y-60425238D02*
X73380952Y-60377619D01*
X74809523Y-61377619D02*
X74476190Y-60901428D01*
X74238095Y-61377619D02*
X74238095Y-60377619D01*
X74238095Y-60377619D02*
X74619047Y-60377619D01*
X74619047Y-60377619D02*
X74714285Y-60425238D01*
X74714285Y-60425238D02*
X74761904Y-60472857D01*
X74761904Y-60472857D02*
X74809523Y-60568095D01*
X74809523Y-60568095D02*
X74809523Y-60710952D01*
X74809523Y-60710952D02*
X74761904Y-60806190D01*
X74761904Y-60806190D02*
X74714285Y-60853809D01*
X74714285Y-60853809D02*
X74619047Y-60901428D01*
X74619047Y-60901428D02*
X74238095Y-60901428D01*
X76523809Y-61377619D02*
X75952381Y-61377619D01*
X76238095Y-61377619D02*
X76238095Y-60377619D01*
X76238095Y-60377619D02*
X76142857Y-60520476D01*
X76142857Y-60520476D02*
X76047619Y-60615714D01*
X76047619Y-60615714D02*
X75952381Y-60663333D01*
%TO.C,BZ1*%
X68281666Y-108630951D02*
X68281666Y-107869047D01*
X68662619Y-108249999D02*
X67900714Y-108249999D01*
D12*
%TO.C,C1*%
X97260000Y-107695563D02*
X96195563Y-108760000D01*
X92740000Y-104240000D02*
X92740000Y-105440000D01*
X96195563Y-104240000D02*
X92740000Y-104240000D01*
X97260000Y-107695563D02*
X97260000Y-107560000D01*
X97750000Y-108310000D02*
X97750000Y-107810000D01*
X97260000Y-105304437D02*
X96195563Y-104240000D01*
X98000000Y-108060000D02*
X97500000Y-108060000D01*
X92740000Y-108760000D02*
X92740000Y-107560000D01*
X96195563Y-108760000D02*
X92740000Y-108760000D01*
X97260000Y-105304437D02*
X97260000Y-105440000D01*
%TO.C,R1*%
X110735000Y-88272936D02*
X110735000Y-88727064D01*
X109265000Y-88272936D02*
X109265000Y-88727064D01*
%TO.C,R3*%
X115735000Y-88272936D02*
X115735000Y-88727064D01*
X114265000Y-88272936D02*
X114265000Y-88727064D01*
%TO.C,J2*%
X107255000Y-84000000D02*
X108638000Y-84000000D01*
X107255000Y-84000000D02*
X107255000Y-82616000D01*
X107495000Y-83760000D02*
X122495000Y-83760000D01*
X107495000Y-83760000D02*
X107495000Y-73860000D01*
X122495000Y-83760000D02*
X122495000Y-73860000D01*
X109280000Y-80840000D02*
X110550000Y-80840000D01*
X109400000Y-80840000D02*
X109400000Y-79486667D01*
X109520000Y-80840000D02*
X109520000Y-79486667D01*
X109640000Y-80840000D02*
X109640000Y-79486667D01*
X109760000Y-80840000D02*
X109760000Y-79486667D01*
X109880000Y-80840000D02*
X109880000Y-79486667D01*
X110000000Y-80840000D02*
X110000000Y-79486667D01*
X110120000Y-80840000D02*
X110120000Y-79486667D01*
X110240000Y-80840000D02*
X110240000Y-79486667D01*
X110360000Y-80840000D02*
X110360000Y-79486667D01*
X110480000Y-80840000D02*
X110480000Y-79486667D01*
X110550000Y-80840000D02*
X110550000Y-76780000D01*
X111820000Y-80840000D02*
X113090000Y-80840000D01*
X111940000Y-80840000D02*
X111940000Y-79486667D01*
X112060000Y-80840000D02*
X112060000Y-79486667D01*
X112180000Y-80840000D02*
X112180000Y-79486667D01*
X112300000Y-80840000D02*
X112300000Y-79486667D01*
X112420000Y-80840000D02*
X112420000Y-79486667D01*
X112540000Y-80840000D02*
X112540000Y-79486667D01*
X112660000Y-80840000D02*
X112660000Y-79486667D01*
X112780000Y-80840000D02*
X112780000Y-79486667D01*
X112900000Y-80840000D02*
X112900000Y-79486667D01*
X113020000Y-80840000D02*
X113020000Y-79486667D01*
X113090000Y-80840000D02*
X113090000Y-76780000D01*
X114360000Y-80840000D02*
X115630000Y-80840000D01*
X114480000Y-80840000D02*
X114480000Y-79486667D01*
X114600000Y-80840000D02*
X114600000Y-79486667D01*
X114720000Y-80840000D02*
X114720000Y-79486667D01*
X114840000Y-80840000D02*
X114840000Y-79486667D01*
X114960000Y-80840000D02*
X114960000Y-79486667D01*
X115080000Y-80840000D02*
X115080000Y-79486667D01*
X115200000Y-80840000D02*
X115200000Y-79486667D01*
X115320000Y-80840000D02*
X115320000Y-79486667D01*
X115440000Y-80840000D02*
X115440000Y-79486667D01*
X115560000Y-80840000D02*
X115560000Y-79486667D01*
X115630000Y-80840000D02*
X115630000Y-76780000D01*
X116900000Y-80840000D02*
X118170000Y-80840000D01*
X117020000Y-80840000D02*
X117020000Y-79486667D01*
X117140000Y-80840000D02*
X117140000Y-79486667D01*
X117260000Y-80840000D02*
X117260000Y-79486667D01*
X117380000Y-80840000D02*
X117380000Y-79486667D01*
X117500000Y-80840000D02*
X117500000Y-79486667D01*
X117620000Y-80840000D02*
X117620000Y-79486667D01*
X117740000Y-80840000D02*
X117740000Y-79486667D01*
X117860000Y-80840000D02*
X117860000Y-79486667D01*
X117980000Y-80840000D02*
X117980000Y-79486667D01*
X118100000Y-80840000D02*
X118100000Y-79486667D01*
X118170000Y-80840000D02*
X118170000Y-76780000D01*
X119440000Y-80840000D02*
X120710000Y-80840000D01*
X119560000Y-80840000D02*
X119560000Y-79486667D01*
X119680000Y-80840000D02*
X119680000Y-79486667D01*
X119800000Y-80840000D02*
X119800000Y-79486667D01*
X119920000Y-80840000D02*
X119920000Y-79486667D01*
X120040000Y-80840000D02*
X120040000Y-79486667D01*
X120160000Y-80840000D02*
X120160000Y-79486667D01*
X120280000Y-80840000D02*
X120280000Y-79486667D01*
X120400000Y-80840000D02*
X120400000Y-79486667D01*
X120520000Y-80840000D02*
X120520000Y-79486667D01*
X120640000Y-80840000D02*
X120640000Y-79486667D01*
X120710000Y-80840000D02*
X120710000Y-76780000D01*
X109280000Y-79486667D02*
X110550000Y-79486667D01*
X111820000Y-79486667D02*
X113090000Y-79486667D01*
X114360000Y-79486667D02*
X115630000Y-79486667D01*
X116900000Y-79486667D02*
X118170000Y-79486667D01*
X119440000Y-79486667D02*
X120710000Y-79486667D01*
X109280000Y-76780000D02*
X109280000Y-80840000D01*
X110550000Y-76780000D02*
X109280000Y-76780000D01*
X111820000Y-76780000D02*
X111820000Y-80840000D01*
X113090000Y-76780000D02*
X111820000Y-76780000D01*
X114360000Y-76780000D02*
X114360000Y-80840000D01*
X115630000Y-76780000D02*
X114360000Y-76780000D01*
X116900000Y-76780000D02*
X116900000Y-80840000D01*
X118170000Y-76780000D02*
X116900000Y-76780000D01*
X119440000Y-76780000D02*
X119440000Y-80840000D01*
X120710000Y-76780000D02*
X119440000Y-76780000D01*
X107495000Y-73860000D02*
X122495000Y-73860000D01*
%TO.C,R11*%
X83265000Y-67814564D02*
X83265000Y-67360436D01*
X84735000Y-67814564D02*
X84735000Y-67360436D01*
%TO.C,R10*%
X80265000Y-67814564D02*
X80265000Y-67360436D01*
X81735000Y-67814564D02*
X81735000Y-67360436D01*
%TO.C,D2*%
X80815000Y-94040000D02*
X80815000Y-95960000D01*
X80815000Y-95960000D02*
X83500000Y-95960000D01*
X83500000Y-94040000D02*
X80815000Y-94040000D01*
%TO.C,R8*%
X73265000Y-67764564D02*
X73265000Y-67310436D01*
X74735000Y-67764564D02*
X74735000Y-67310436D01*
%TO.C,J5*%
X66140000Y-50722500D02*
X78860000Y-50722500D01*
X66140000Y-51942500D02*
X67360000Y-51942500D01*
X66140000Y-59142500D02*
X66140000Y-50722500D01*
X67360000Y-51942500D02*
X67360000Y-56942500D01*
X67360000Y-55942500D02*
X77640000Y-55942500D01*
X67360000Y-56942500D02*
X66140000Y-56942500D01*
X67360000Y-56942500D02*
X67360000Y-59142500D01*
X67360000Y-59142500D02*
X66140000Y-59142500D01*
X68430000Y-52522500D02*
X68750000Y-52442500D01*
X68430000Y-55942500D02*
X68430000Y-52522500D01*
X68450000Y-59632500D02*
X69050000Y-59632500D01*
X68750000Y-52442500D02*
X69070000Y-52522500D01*
X68750000Y-55942500D02*
X68430000Y-55942500D01*
X68750000Y-59032500D02*
X68450000Y-59632500D01*
X69050000Y-59632500D02*
X68750000Y-59032500D01*
X69070000Y-52522500D02*
X69070000Y-55942500D01*
X69070000Y-55942500D02*
X68750000Y-55942500D01*
X69920000Y-56942500D02*
X70080000Y-56942500D01*
X70930000Y-52522500D02*
X71250000Y-52442500D01*
X70930000Y-55942500D02*
X70930000Y-52522500D01*
X71250000Y-52442500D02*
X71570000Y-52522500D01*
X71250000Y-55942500D02*
X70930000Y-55942500D01*
X71570000Y-52522500D02*
X71570000Y-55942500D01*
X71570000Y-55942500D02*
X71250000Y-55942500D01*
X72420000Y-56942500D02*
X72580000Y-56942500D01*
X73430000Y-52522500D02*
X73750000Y-52442500D01*
X73430000Y-55942500D02*
X73430000Y-52522500D01*
X73750000Y-52442500D02*
X74070000Y-52522500D01*
X73750000Y-55942500D02*
X73430000Y-55942500D01*
X74070000Y-52522500D02*
X74070000Y-55942500D01*
X74070000Y-55942500D02*
X73750000Y-55942500D01*
X74920000Y-56942500D02*
X75080000Y-56942500D01*
X75930000Y-52522500D02*
X76250000Y-52442500D01*
X75930000Y-55942500D02*
X75930000Y-52522500D01*
X76250000Y-52442500D02*
X76570000Y-52522500D01*
X76250000Y-55942500D02*
X75930000Y-55942500D01*
X76570000Y-52522500D02*
X76570000Y-55942500D01*
X76570000Y-55942500D02*
X76250000Y-55942500D01*
X77640000Y-51942500D02*
X77640000Y-56942500D01*
X77640000Y-56942500D02*
X78860000Y-56942500D01*
X77640000Y-59142500D02*
X77640000Y-56942500D01*
X78860000Y-50722500D02*
X78860000Y-59142500D01*
X78860000Y-51942500D02*
X77640000Y-51942500D01*
X78860000Y-59142500D02*
X77640000Y-59142500D01*
%TO.C,SW1*%
X111250000Y-66500000D02*
X111250000Y-68000000D01*
X112500000Y-70500000D02*
X117000000Y-70500000D01*
X117000000Y-64000000D02*
X112500000Y-64000000D01*
X118250000Y-68000000D02*
X118250000Y-66500000D01*
%TO.C,R5*%
X120735000Y-88272936D02*
X120735000Y-88727064D01*
X119265000Y-88272936D02*
X119265000Y-88727064D01*
%TO.C,D1*%
X70040000Y-69247500D02*
X71960000Y-69247500D01*
X71960000Y-69247500D02*
X71960000Y-66562500D01*
X70040000Y-66562500D02*
X70040000Y-69247500D01*
%TO.C,J6*%
X106140000Y-50722500D02*
X118860000Y-50722500D01*
X106140000Y-51942500D02*
X107360000Y-51942500D01*
X106140000Y-59142500D02*
X106140000Y-50722500D01*
X107360000Y-51942500D02*
X107360000Y-56942500D01*
X107360000Y-55942500D02*
X117640000Y-55942500D01*
X107360000Y-56942500D02*
X106140000Y-56942500D01*
X107360000Y-56942500D02*
X107360000Y-59142500D01*
X107360000Y-59142500D02*
X106140000Y-59142500D01*
X108430000Y-52522500D02*
X108750000Y-52442500D01*
X108430000Y-55942500D02*
X108430000Y-52522500D01*
X108450000Y-59632500D02*
X109050000Y-59632500D01*
X108750000Y-52442500D02*
X109070000Y-52522500D01*
X108750000Y-55942500D02*
X108430000Y-55942500D01*
X108750000Y-59032500D02*
X108450000Y-59632500D01*
X109050000Y-59632500D02*
X108750000Y-59032500D01*
X109070000Y-52522500D02*
X109070000Y-55942500D01*
X109070000Y-55942500D02*
X108750000Y-55942500D01*
X109920000Y-56942500D02*
X110080000Y-56942500D01*
X110930000Y-52522500D02*
X111250000Y-52442500D01*
X110930000Y-55942500D02*
X110930000Y-52522500D01*
X111250000Y-52442500D02*
X111570000Y-52522500D01*
X111250000Y-55942500D02*
X110930000Y-55942500D01*
X111570000Y-52522500D02*
X111570000Y-55942500D01*
X111570000Y-55942500D02*
X111250000Y-55942500D01*
X112420000Y-56942500D02*
X112580000Y-56942500D01*
X113430000Y-52522500D02*
X113750000Y-52442500D01*
X113430000Y-55942500D02*
X113430000Y-52522500D01*
X113750000Y-52442500D02*
X114070000Y-52522500D01*
X113750000Y-55942500D02*
X113430000Y-55942500D01*
X114070000Y-52522500D02*
X114070000Y-55942500D01*
X114070000Y-55942500D02*
X113750000Y-55942500D01*
X114920000Y-56942500D02*
X115080000Y-56942500D01*
X115930000Y-52522500D02*
X116250000Y-52442500D01*
X115930000Y-55942500D02*
X115930000Y-52522500D01*
X116250000Y-52442500D02*
X116570000Y-52522500D01*
X116250000Y-55942500D02*
X115930000Y-55942500D01*
X116570000Y-52522500D02*
X116570000Y-55942500D01*
X116570000Y-55942500D02*
X116250000Y-55942500D01*
X117640000Y-51942500D02*
X117640000Y-56942500D01*
X117640000Y-56942500D02*
X118860000Y-56942500D01*
X117640000Y-59142500D02*
X117640000Y-56942500D01*
X118860000Y-50722500D02*
X118860000Y-59142500D01*
X118860000Y-51942500D02*
X117640000Y-51942500D01*
X118860000Y-59142500D02*
X117640000Y-59142500D01*
%TO.C,R9*%
X75227064Y-95735000D02*
X74772936Y-95735000D01*
X75227064Y-94265000D02*
X74772936Y-94265000D01*
%TO.C,Y1*%
X74950000Y-89200000D02*
X80050000Y-89200000D01*
X80050000Y-89200000D02*
X80050000Y-76600000D01*
X74950000Y-76600000D02*
X74950000Y-89200000D01*
%TO.C,R4*%
X118235000Y-88272936D02*
X118235000Y-88727064D01*
X116765000Y-88272936D02*
X116765000Y-88727064D01*
%TO.C,BZ1*%
X76100000Y-105000000D02*
G75*
G03*
X76100000Y-105000000I-6100000J0D01*
G01*
%TO.C,C2*%
X69265000Y-78261252D02*
X69265000Y-77738748D01*
X70735000Y-78261252D02*
X70735000Y-77738748D01*
%TO.C,C3*%
X70735000Y-86738748D02*
X70735000Y-87261252D01*
X69265000Y-86738748D02*
X69265000Y-87261252D01*
%TO.C,R6*%
X108735000Y-66935436D02*
X108735000Y-67389564D01*
X107265000Y-66935436D02*
X107265000Y-67389564D01*
%TO.C,J3*%
X86140000Y-50690000D02*
X98860000Y-50690000D01*
X86140000Y-51910000D02*
X87360000Y-51910000D01*
X86140000Y-59110000D02*
X86140000Y-50690000D01*
X87360000Y-51910000D02*
X87360000Y-56910000D01*
X87360000Y-55910000D02*
X97640000Y-55910000D01*
X87360000Y-56910000D02*
X86140000Y-56910000D01*
X87360000Y-56910000D02*
X87360000Y-59110000D01*
X87360000Y-59110000D02*
X86140000Y-59110000D01*
X88430000Y-52490000D02*
X88750000Y-52410000D01*
X88430000Y-55910000D02*
X88430000Y-52490000D01*
X88450000Y-59600000D02*
X89050000Y-59600000D01*
X88750000Y-52410000D02*
X89070000Y-52490000D01*
X88750000Y-55910000D02*
X88430000Y-55910000D01*
X88750000Y-59000000D02*
X88450000Y-59600000D01*
X89050000Y-59600000D02*
X88750000Y-59000000D01*
X89070000Y-52490000D02*
X89070000Y-55910000D01*
X89070000Y-55910000D02*
X88750000Y-55910000D01*
X89920000Y-56910000D02*
X90080000Y-56910000D01*
X90930000Y-52490000D02*
X91250000Y-52410000D01*
X90930000Y-55910000D02*
X90930000Y-52490000D01*
X91250000Y-52410000D02*
X91570000Y-52490000D01*
X91250000Y-55910000D02*
X90930000Y-55910000D01*
X91570000Y-52490000D02*
X91570000Y-55910000D01*
X91570000Y-55910000D02*
X91250000Y-55910000D01*
X92420000Y-56910000D02*
X92580000Y-56910000D01*
X93430000Y-52490000D02*
X93750000Y-52410000D01*
X93430000Y-55910000D02*
X93430000Y-52490000D01*
X93750000Y-52410000D02*
X94070000Y-52490000D01*
X93750000Y-55910000D02*
X93430000Y-55910000D01*
X94070000Y-52490000D02*
X94070000Y-55910000D01*
X94070000Y-55910000D02*
X93750000Y-55910000D01*
X94920000Y-56910000D02*
X95080000Y-56910000D01*
X95930000Y-52490000D02*
X96250000Y-52410000D01*
X95930000Y-55910000D02*
X95930000Y-52490000D01*
X96250000Y-52410000D02*
X96570000Y-52490000D01*
X96250000Y-55910000D02*
X95930000Y-55910000D01*
X96570000Y-52490000D02*
X96570000Y-55910000D01*
X96570000Y-55910000D02*
X96250000Y-55910000D01*
X97640000Y-51910000D02*
X97640000Y-56910000D01*
X97640000Y-56910000D02*
X98860000Y-56910000D01*
X97640000Y-59110000D02*
X97640000Y-56910000D01*
X98860000Y-50690000D02*
X98860000Y-59110000D01*
X98860000Y-51910000D02*
X97640000Y-51910000D01*
X98860000Y-59110000D02*
X97640000Y-59110000D01*
%TO.C,R2*%
X113235000Y-88272936D02*
X113235000Y-88727064D01*
X111765000Y-88272936D02*
X111765000Y-88727064D01*
%TO.C,J1*%
X111130000Y-105330000D02*
X118870000Y-105330000D01*
X111130000Y-105330000D02*
X111130000Y-102730000D01*
X118870000Y-105330000D02*
X118870000Y-100130000D01*
X111130000Y-102730000D02*
X113730000Y-102730000D01*
X113730000Y-102730000D02*
X113730000Y-100130000D01*
X111130000Y-101460000D02*
X111130000Y-100130000D01*
X111130000Y-100130000D02*
X112460000Y-100130000D01*
X113730000Y-100130000D02*
X118870000Y-100130000D01*
%TO.C,R7*%
X79265000Y-105727064D02*
X79265000Y-105272936D01*
X80735000Y-105727064D02*
X80735000Y-105272936D01*
%TO.C,U1*%
X92360000Y-65170000D02*
X92360000Y-100850000D01*
X92360000Y-100850000D02*
X97660000Y-100850000D01*
X94010000Y-65170000D02*
X92360000Y-65170000D01*
X97660000Y-65170000D02*
X96010000Y-65170000D01*
X97660000Y-100850000D02*
X97660000Y-65170000D01*
X94010000Y-65170000D02*
G75*
G03*
X96010000Y-65170000I1000000J0D01*
G01*
%TD*%
M02*
