M48
; DRILL file {KiCad 7.0.1-3b83917a11~172~ubuntu20.04.1} date Monday 17 April 2023 05:39:46 PM
; FORMAT={-:-/ absolute / metric / decimal}
; #@! TF.CreationDate,2023-04-17T17:39:46+05:30
; #@! TF.GenerationSoftware,Kicad,Pcbnew,7.0.1-3b83917a11~172~ubuntu20.04.1
; #@! TF.FileFunction,Plated,1,2,PTH
FMAT,2
METRIC
; #@! TA.AperFunction,Plated,PTH,ViaDrill
T1C0.700
; #@! TA.AperFunction,Plated,PTH,ComponentDrill
T2C0.800
; #@! TA.AperFunction,Plated,PTH,ComponentDrill
T3C0.950
; #@! TA.AperFunction,Plated,PTH,ComponentDrill
T4C1.000
; #@! TA.AperFunction,Plated,PTH,ComponentDrill
T5C1.100
; #@! TA.AperFunction,Plated,PTH,ComponentDrill
T6C3.200
%
G90
G05
T1
X86.5Y-80.5
X101.0Y-60.0
X102.5Y-106.5
X110.0Y-92.0
X112.5Y-92.0
X115.0Y-92.0
X117.5Y-92.0
X120.0Y-92.0
X121.0Y-109.5
T2
X91.2Y-66.5
X91.2Y-69.04
X91.2Y-71.58
X91.2Y-74.12
X91.2Y-76.66
X91.2Y-79.2
X91.2Y-81.74
X91.2Y-84.28
X91.2Y-86.82
X91.2Y-89.36
X91.2Y-91.9
X91.2Y-94.44
X91.2Y-96.98
X91.2Y-99.52
X98.82Y-66.5
X98.82Y-69.04
X98.82Y-71.58
X98.82Y-74.12
X98.82Y-76.66
X98.82Y-79.2
X98.82Y-81.74
X98.82Y-84.28
X98.82Y-86.82
X98.82Y-89.36
X98.82Y-91.9
X98.82Y-94.44
X98.82Y-96.98
X98.82Y-99.52
X109.915Y-75.0
X109.915Y-82.62
X112.455Y-75.0
X112.455Y-82.62
X114.995Y-75.0
X114.995Y-82.62
X117.535Y-75.0
X117.535Y-82.62
X120.075Y-75.0
X120.075Y-82.62
T3
X68.75Y-57.532
X71.25Y-57.532
X73.75Y-57.532
X76.25Y-57.532
X88.75Y-57.5
X91.25Y-57.5
X93.75Y-57.5
X96.25Y-57.5
X108.75Y-57.532
X111.25Y-57.532
X113.75Y-57.532
X116.25Y-57.532
T4
X70.0Y-101.75
X70.0Y-108.25
X112.46Y-101.46
X112.46Y-104.0
X115.0Y-101.46
X115.0Y-104.0
X117.54Y-101.46
X117.54Y-104.0
X131.525Y-77.45
X131.525Y-79.99
X131.525Y-82.53
X131.525Y-85.07
X131.525Y-87.61
T5
X111.5Y-65.0
X111.5Y-69.5
X118.0Y-65.0
X118.0Y-69.5
T6
X53.0Y-53.0
X53.0Y-109.0
X131.5Y-53.0
X131.5Y-109.0
T0
M30
