%TF.GenerationSoftware,KiCad,Pcbnew,7.0.1-3b83917a11~172~ubuntu20.04.1*%
%TF.CreationDate,2023-04-17T17:43:15+05:30*%
%TF.ProjectId,motor controller,6d6f746f-7220-4636-9f6e-74726f6c6c65,rev?*%
%TF.SameCoordinates,Original*%
%TF.FileFunction,Copper,L1,Top*%
%TF.FilePolarity,Positive*%
%FSLAX46Y46*%
G04 Gerber Fmt 4.6, Leading zero omitted, Abs format (unit mm)*
G04 Created by KiCad (PCBNEW 7.0.1-3b83917a11~172~ubuntu20.04.1) date 2023-04-17 17:43:15*
%MOMM*%
%LPD*%
G01*
G04 APERTURE LIST*
G04 Aperture macros list*
%AMRoundRect*
0 Rectangle with rounded corners*
0 $1 Rounding radius*
0 $2 $3 $4 $5 $6 $7 $8 $9 X,Y pos of 4 corners*
0 Add a 4 corners polygon primitive as box body*
4,1,4,$2,$3,$4,$5,$6,$7,$8,$9,$2,$3,0*
0 Add four circle primitives for the rounded corners*
1,1,$1+$1,$2,$3*
1,1,$1+$1,$4,$5*
1,1,$1+$1,$6,$7*
1,1,$1+$1,$8,$9*
0 Add four rect primitives between the rounded corners*
20,1,$1+$1,$2,$3,$4,$5,0*
20,1,$1+$1,$4,$5,$6,$7,0*
20,1,$1+$1,$6,$7,$8,$9,0*
20,1,$1+$1,$8,$9,$2,$3,0*%
G04 Aperture macros list end*
%TA.AperFunction,SMDPad,CuDef*%
%ADD10RoundRect,0.250000X1.050000X0.550000X-1.050000X0.550000X-1.050000X-0.550000X1.050000X-0.550000X0*%
%TD*%
%TA.AperFunction,SMDPad,CuDef*%
%ADD11RoundRect,0.250000X-0.450000X0.262500X-0.450000X-0.262500X0.450000X-0.262500X0.450000X0.262500X0*%
%TD*%
%TA.AperFunction,ComponentPad*%
%ADD12R,1.600000X1.600000*%
%TD*%
%TA.AperFunction,ComponentPad*%
%ADD13O,1.600000X1.600000*%
%TD*%
%TA.AperFunction,SMDPad,CuDef*%
%ADD14RoundRect,0.250000X0.450000X-0.262500X0.450000X0.262500X-0.450000X0.262500X-0.450000X-0.262500X0*%
%TD*%
%TA.AperFunction,SMDPad,CuDef*%
%ADD15RoundRect,0.243750X-0.243750X-0.456250X0.243750X-0.456250X0.243750X0.456250X-0.243750X0.456250X0*%
%TD*%
%TA.AperFunction,ComponentPad*%
%ADD16RoundRect,0.250000X-0.600000X-0.725000X0.600000X-0.725000X0.600000X0.725000X-0.600000X0.725000X0*%
%TD*%
%TA.AperFunction,ComponentPad*%
%ADD17O,1.700000X1.950000*%
%TD*%
%TA.AperFunction,ComponentPad*%
%ADD18C,2.000000*%
%TD*%
%TA.AperFunction,SMDPad,CuDef*%
%ADD19RoundRect,0.243750X0.456250X-0.243750X0.456250X0.243750X-0.456250X0.243750X-0.456250X-0.243750X0*%
%TD*%
%TA.AperFunction,ComponentPad*%
%ADD20C,5.600000*%
%TD*%
%TA.AperFunction,SMDPad,CuDef*%
%ADD21RoundRect,0.250000X0.262500X0.450000X-0.262500X0.450000X-0.262500X-0.450000X0.262500X-0.450000X0*%
%TD*%
%TA.AperFunction,SMDPad,CuDef*%
%ADD22R,2.000000X4.500000*%
%TD*%
%TA.AperFunction,ComponentPad*%
%ADD23C,1.600000*%
%TD*%
%TA.AperFunction,SMDPad,CuDef*%
%ADD24RoundRect,0.250000X0.475000X-0.250000X0.475000X0.250000X-0.475000X0.250000X-0.475000X-0.250000X0*%
%TD*%
%TA.AperFunction,SMDPad,CuDef*%
%ADD25RoundRect,0.250000X-0.475000X0.250000X-0.475000X-0.250000X0.475000X-0.250000X0.475000X0.250000X0*%
%TD*%
%TA.AperFunction,ComponentPad*%
%ADD26R,1.700000X1.700000*%
%TD*%
%TA.AperFunction,ComponentPad*%
%ADD27O,1.700000X1.700000*%
%TD*%
%TA.AperFunction,ViaPad*%
%ADD28C,1.200000*%
%TD*%
%TA.AperFunction,Conductor*%
%ADD29C,0.600000*%
%TD*%
%TA.AperFunction,Conductor*%
%ADD30C,0.800000*%
%TD*%
%TA.AperFunction,Conductor*%
%ADD31C,0.400000*%
%TD*%
G04 APERTURE END LIST*
D10*
%TO.P,C1,1*%
%TO.N,+5V*%
X96800000Y-106500000D03*
%TO.P,C1,2*%
%TO.N,GND*%
X93200000Y-106500000D03*
%TD*%
D11*
%TO.P,R1,1*%
%TO.N,+5V*%
X110000000Y-87587500D03*
%TO.P,R1,2*%
%TO.N,/S1*%
X110000000Y-89412500D03*
%TD*%
%TO.P,R3,1*%
%TO.N,+5V*%
X115000000Y-87587500D03*
%TO.P,R3,2*%
%TO.N,/S3*%
X115000000Y-89412500D03*
%TD*%
D12*
%TO.P,J2,1,Pin_1*%
%TO.N,/S1*%
X109915000Y-82620000D03*
D13*
%TO.P,J2,2,Pin_2*%
%TO.N,/S2*%
X112455000Y-82620000D03*
%TO.P,J2,3,Pin_3*%
%TO.N,/S3*%
X114995000Y-82620000D03*
%TO.P,J2,4,Pin_4*%
%TO.N,/S4*%
X117535000Y-82620000D03*
%TO.P,J2,5,Pin_5*%
%TO.N,/S5*%
X120075000Y-82620000D03*
%TO.P,J2,6,Pin_6*%
%TO.N,GND*%
X120075000Y-75000000D03*
%TO.P,J2,7,Pin_7*%
X117535000Y-75000000D03*
%TO.P,J2,8,Pin_8*%
X114995000Y-75000000D03*
%TO.P,J2,9,Pin_9*%
X112455000Y-75000000D03*
%TO.P,J2,10,Pin_10*%
X109915000Y-75000000D03*
%TD*%
D14*
%TO.P,R11,1*%
%TO.N,+5V*%
X84000000Y-68500000D03*
%TO.P,R11,2*%
%TO.N,/SDA*%
X84000000Y-66675000D03*
%TD*%
%TO.P,R10,1*%
%TO.N,+5V*%
X81000000Y-68500000D03*
%TO.P,R10,2*%
%TO.N,/SCL*%
X81000000Y-66675000D03*
%TD*%
D15*
%TO.P,D2,1,K*%
%TO.N,Net-(D2-K)*%
X81562500Y-95000000D03*
%TO.P,D2,2,A*%
%TO.N,/LED*%
X83437500Y-95000000D03*
%TD*%
D14*
%TO.P,R8,1*%
%TO.N,Net-(D1-K)*%
X74000000Y-68450000D03*
%TO.P,R8,2*%
%TO.N,GND*%
X74000000Y-66625000D03*
%TD*%
D16*
%TO.P,J5,1,Pin_1*%
%TO.N,+5V*%
X68750000Y-57532500D03*
D17*
%TO.P,J5,2,Pin_2*%
%TO.N,GND*%
X71250000Y-57532500D03*
%TO.P,J5,3,Pin_3*%
%TO.N,/M1A*%
X73750000Y-57532500D03*
%TO.P,J5,4,Pin_4*%
%TO.N,/M1B*%
X76250000Y-57532500D03*
%TD*%
D18*
%TO.P,SW1,1,1*%
%TO.N,/RST1*%
X111500000Y-65000000D03*
X118000000Y-65000000D03*
%TO.P,SW1,2,2*%
%TO.N,GND*%
X111500000Y-69500000D03*
X118000000Y-69500000D03*
%TD*%
D11*
%TO.P,R5,1*%
%TO.N,+5V*%
X120000000Y-87587500D03*
%TO.P,R5,2*%
%TO.N,/S5*%
X120000000Y-89412500D03*
%TD*%
D19*
%TO.P,D1,1,K*%
%TO.N,Net-(D1-K)*%
X71000000Y-68500000D03*
%TO.P,D1,2,A*%
%TO.N,+5V*%
X71000000Y-66625000D03*
%TD*%
D16*
%TO.P,J6,1,Pin_1*%
%TO.N,+5V*%
X108750000Y-57532500D03*
D17*
%TO.P,J6,2,Pin_2*%
%TO.N,GND*%
X111250000Y-57532500D03*
%TO.P,J6,3,Pin_3*%
%TO.N,/M2A*%
X113750000Y-57532500D03*
%TO.P,J6,4,Pin_4*%
%TO.N,/M2B*%
X116250000Y-57532500D03*
%TD*%
D20*
%TO.P,H2,1,1*%
%TO.N,GND*%
X131500000Y-53000000D03*
%TD*%
D21*
%TO.P,R9,1*%
%TO.N,Net-(D2-K)*%
X75912500Y-95000000D03*
%TO.P,R9,2*%
%TO.N,GND*%
X74087500Y-95000000D03*
%TD*%
D22*
%TO.P,Y1,1,1*%
%TO.N,Net-(U1-XTAL2{slash}PB7)*%
X77500000Y-86750000D03*
%TO.P,Y1,2,2*%
%TO.N,Net-(U1-XTAL1{slash}PB6)*%
X77500000Y-78250000D03*
%TD*%
D11*
%TO.P,R4,1*%
%TO.N,+5V*%
X117500000Y-87587500D03*
%TO.P,R4,2*%
%TO.N,/S4*%
X117500000Y-89412500D03*
%TD*%
D12*
%TO.P,BZ1,1,-*%
%TO.N,Net-(BZ1--)*%
X70000000Y-108250000D03*
D23*
%TO.P,BZ1,2,+*%
%TO.N,GND*%
X70000000Y-101750000D03*
%TD*%
D24*
%TO.P,C2,1*%
%TO.N,Net-(U1-XTAL1{slash}PB6)*%
X70000000Y-78950000D03*
%TO.P,C2,2*%
%TO.N,GND*%
X70000000Y-77050000D03*
%TD*%
D25*
%TO.P,C3,1*%
%TO.N,Net-(U1-XTAL2{slash}PB7)*%
X70000000Y-86050000D03*
%TO.P,C3,2*%
%TO.N,GND*%
X70000000Y-87950000D03*
%TD*%
D20*
%TO.P,H3,1,1*%
%TO.N,GND*%
X53000000Y-53000000D03*
%TD*%
%TO.P,H1,1,1*%
%TO.N,GND*%
X53000000Y-109000000D03*
%TD*%
D11*
%TO.P,R6,1*%
%TO.N,+5V*%
X108000000Y-66250000D03*
%TO.P,R6,2*%
%TO.N,/RST1*%
X108000000Y-68075000D03*
%TD*%
D20*
%TO.P,H4,1,1*%
%TO.N,GND*%
X131500000Y-109000000D03*
%TD*%
D16*
%TO.P,J3,1,Pin_1*%
%TO.N,+5V*%
X88750000Y-57500000D03*
D17*
%TO.P,J3,2,Pin_2*%
%TO.N,/SCL*%
X91250000Y-57500000D03*
%TO.P,J3,3,Pin_3*%
%TO.N,/SDA*%
X93750000Y-57500000D03*
%TO.P,J3,4,Pin_4*%
%TO.N,GND*%
X96250000Y-57500000D03*
%TD*%
D11*
%TO.P,R2,1*%
%TO.N,+5V*%
X112500000Y-87587500D03*
%TO.P,R2,2*%
%TO.N,/S2*%
X112500000Y-89412500D03*
%TD*%
D26*
%TO.P,J1,1,Pin_1*%
%TO.N,/MISO*%
X112460000Y-101460000D03*
D27*
%TO.P,J1,2,Pin_2*%
%TO.N,+5V*%
X112460000Y-104000000D03*
%TO.P,J1,3,Pin_3*%
%TO.N,/SCK*%
X115000000Y-101460000D03*
%TO.P,J1,4,Pin_4*%
%TO.N,/MOSI*%
X115000000Y-104000000D03*
%TO.P,J1,5,Pin_5*%
%TO.N,/RST*%
X117540000Y-101460000D03*
%TO.P,J1,6,Pin_6*%
%TO.N,GND*%
X117540000Y-104000000D03*
%TD*%
D14*
%TO.P,R7,1*%
%TO.N,Net-(BZ1--)*%
X80000000Y-106412500D03*
%TO.P,R7,2*%
%TO.N,/BUZZ*%
X80000000Y-104587500D03*
%TD*%
D12*
%TO.P,U1,1,~{RESET}/PC6*%
%TO.N,/RST*%
X91200000Y-66500000D03*
D13*
%TO.P,U1,2,PD0*%
%TO.N,/DM1*%
X91200000Y-69040000D03*
%TO.P,U1,3,PD1*%
%TO.N,/M2B*%
X91200000Y-71580000D03*
%TO.P,U1,4,PD2*%
%TO.N,/M2A*%
X91200000Y-74120000D03*
%TO.P,U1,5,PD3*%
%TO.N,/M1B*%
X91200000Y-76660000D03*
%TO.P,U1,6,PD4*%
%TO.N,/M1A*%
X91200000Y-79200000D03*
%TO.P,U1,7,VCC*%
%TO.N,+5V*%
X91200000Y-81740000D03*
%TO.P,U1,8,GND*%
%TO.N,GND*%
X91200000Y-84280000D03*
%TO.P,U1,9,XTAL1/PB6*%
%TO.N,Net-(U1-XTAL1{slash}PB6)*%
X91200000Y-86820000D03*
%TO.P,U1,10,XTAL2/PB7*%
%TO.N,Net-(U1-XTAL2{slash}PB7)*%
X91200000Y-89360000D03*
%TO.P,U1,11,PD5*%
%TO.N,/LED*%
X91200000Y-91900000D03*
%TO.P,U1,12,PD6*%
%TO.N,/BUZZ*%
X91200000Y-94440000D03*
%TO.P,U1,13,PD7*%
%TO.N,/S2*%
X91200000Y-96980000D03*
%TO.P,U1,14,PB0*%
%TO.N,/S1*%
X91200000Y-99520000D03*
%TO.P,U1,15,PB1*%
%TO.N,/PM2*%
X98820000Y-99520000D03*
%TO.P,U1,16,PB2*%
%TO.N,/PM1*%
X98820000Y-96980000D03*
%TO.P,U1,17,PB3*%
%TO.N,/MOSI*%
X98820000Y-94440000D03*
%TO.P,U1,18,PB4*%
%TO.N,/MISO*%
X98820000Y-91900000D03*
%TO.P,U1,19,PB5*%
%TO.N,/SCK*%
X98820000Y-89360000D03*
%TO.P,U1,20,AVCC*%
%TO.N,+5V*%
X98820000Y-86820000D03*
%TO.P,U1,21,AREF*%
X98820000Y-84280000D03*
%TO.P,U1,22,GND*%
%TO.N,GND*%
X98820000Y-81740000D03*
%TO.P,U1,23,PC0*%
%TO.N,/S5*%
X98820000Y-79200000D03*
%TO.P,U1,24,PC1*%
%TO.N,/S4*%
X98820000Y-76660000D03*
%TO.P,U1,25,PC2*%
%TO.N,/S3*%
X98820000Y-74120000D03*
%TO.P,U1,26,PC3*%
%TO.N,/DM2*%
X98820000Y-71580000D03*
%TO.P,U1,27,PC4*%
%TO.N,/SDA*%
X98820000Y-69040000D03*
%TO.P,U1,28,PC5*%
%TO.N,/SCL*%
X98820000Y-66500000D03*
%TD*%
D26*
%TO.P,J4,1,Pin_1*%
%TO.N,/DM1*%
X131525000Y-77450000D03*
D27*
%TO.P,J4,2,Pin_2*%
%TO.N,/PM1*%
X131525000Y-79990000D03*
%TO.P,J4,3,Pin_3*%
%TO.N,/DM2*%
X131525000Y-82530000D03*
%TO.P,J4,4,Pin_4*%
%TO.N,/PM2*%
X131525000Y-85070000D03*
%TO.P,J4,5,Pin_5*%
%TO.N,GND*%
X131525000Y-87610000D03*
%TD*%
D28*
%TO.N,+5V*%
X102500000Y-106500000D03*
X121000000Y-109500000D03*
%TO.N,/DM1*%
X101000000Y-60000000D03*
%TO.N,/S5*%
X120000000Y-92000000D03*
%TO.N,/S1*%
X110000000Y-92000000D03*
%TO.N,/S2*%
X112500000Y-92000000D03*
%TO.N,/S3*%
X115000000Y-92000000D03*
%TO.N,/S4*%
X117500000Y-92000000D03*
%TO.N,/RST*%
X86500000Y-80500000D03*
%TD*%
D29*
%TO.N,+5V*%
X96800000Y-106500000D02*
X102500000Y-106500000D01*
D30*
%TO.N,GND*%
X93200000Y-106500000D02*
X93000000Y-106500000D01*
D29*
X93000000Y-106500000D02*
X89000000Y-110500000D01*
X70000000Y-99087500D02*
X74087500Y-95000000D01*
X70000000Y-77050000D02*
X67950000Y-77050000D01*
X68000000Y-88000000D02*
X69950000Y-88000000D01*
X61000000Y-109000000D02*
X53000000Y-109000000D01*
X69950000Y-88000000D02*
X70000000Y-87950000D01*
X67950000Y-77050000D02*
X67000000Y-78000000D01*
X70000000Y-101750000D02*
X60250000Y-101750000D01*
X71250000Y-60750000D02*
X71250000Y-57532500D01*
X67000000Y-87000000D02*
X68000000Y-88000000D01*
X87000000Y-110500000D02*
X62500000Y-110500000D01*
X60250000Y-101750000D02*
X53000000Y-109000000D01*
X117540000Y-108460000D02*
X115500000Y-110500000D01*
X67000000Y-78000000D02*
X67000000Y-87000000D01*
X62500000Y-110500000D02*
X61000000Y-109000000D01*
X70000000Y-90912500D02*
X70000000Y-88450000D01*
X131500000Y-56000000D02*
X131500000Y-53000000D01*
X117540000Y-104000000D02*
X117540000Y-108460000D01*
X115500000Y-110500000D02*
X87000000Y-110500000D01*
X131525000Y-108975000D02*
X131500000Y-109000000D01*
X74000000Y-63500000D02*
X71250000Y-60750000D01*
X118000000Y-69500000D02*
X131500000Y-56000000D01*
X70000000Y-101750000D02*
X70000000Y-99087500D01*
X131525000Y-87610000D02*
X131525000Y-108975000D01*
X74087500Y-95000000D02*
X70000000Y-90912500D01*
X109915000Y-75000000D02*
X120075000Y-75000000D01*
X74000000Y-66625000D02*
X74000000Y-63500000D01*
%TO.N,+5V*%
X71000000Y-66625000D02*
X68750000Y-64375000D01*
X120000000Y-87587500D02*
X110000000Y-87587500D01*
X81000000Y-70000000D02*
X79500000Y-71500000D01*
X98820000Y-84280000D02*
X98820000Y-86820000D01*
X88750000Y-55250000D02*
X88750000Y-57500000D01*
X67500000Y-69500000D02*
X67500000Y-65625000D01*
X91000000Y-53000000D02*
X88750000Y-55250000D01*
X84000000Y-80000000D02*
X85740000Y-81740000D01*
X120000000Y-87587500D02*
X121587500Y-87587500D01*
X94240000Y-81740000D02*
X91200000Y-81740000D01*
X106500000Y-53000000D02*
X91000000Y-53000000D01*
X123500000Y-107000000D02*
X121000000Y-109500000D01*
X108750000Y-57532500D02*
X108750000Y-55250000D01*
X86500000Y-53000000D02*
X71000000Y-53000000D01*
X98820000Y-84280000D02*
X96780000Y-84280000D01*
X121587500Y-87587500D02*
X123500000Y-89500000D01*
X79500000Y-71500000D02*
X69500000Y-71500000D01*
X123500000Y-89500000D02*
X123500000Y-107000000D01*
X108750000Y-55250000D02*
X106500000Y-53000000D01*
X67500000Y-65625000D02*
X68750000Y-64375000D01*
X69500000Y-71500000D02*
X67500000Y-69500000D01*
X84000000Y-68500000D02*
X81000000Y-68500000D01*
X88750000Y-55250000D02*
X86500000Y-53000000D01*
X81000000Y-68500000D02*
X81000000Y-70000000D01*
X108000000Y-58282500D02*
X108750000Y-57532500D01*
X96780000Y-84280000D02*
X94240000Y-81740000D01*
X84000000Y-68500000D02*
X84000000Y-80000000D01*
X108000000Y-66250000D02*
X108000000Y-58282500D01*
X68750000Y-55250000D02*
X68750000Y-57532500D01*
X68750000Y-64375000D02*
X68750000Y-57532500D01*
X71000000Y-53000000D02*
X68750000Y-55250000D01*
X85740000Y-81740000D02*
X91200000Y-81740000D01*
D31*
%TO.N,/LED*%
X83437500Y-95000000D02*
X86537500Y-91900000D01*
X86537500Y-91900000D02*
X91200000Y-91900000D01*
%TO.N,/MISO*%
X103000000Y-100000000D02*
X103000000Y-93400000D01*
X101500000Y-91900000D02*
X98820000Y-91900000D01*
X104460000Y-101460000D02*
X103000000Y-100000000D01*
X103000000Y-93400000D02*
X101500000Y-91900000D01*
X112460000Y-101460000D02*
X104460000Y-101460000D01*
%TO.N,/SCK*%
X104500000Y-97500000D02*
X104500000Y-92500000D01*
X115000000Y-101460000D02*
X115000000Y-100000000D01*
X104500000Y-92500000D02*
X101360000Y-89360000D01*
X114000000Y-99000000D02*
X106000000Y-99000000D01*
X115000000Y-100000000D02*
X114000000Y-99000000D01*
X101360000Y-89360000D02*
X98820000Y-89360000D01*
X106000000Y-99000000D02*
X104500000Y-97500000D01*
%TO.N,/MOSI*%
X101500000Y-100500000D02*
X101500000Y-95940000D01*
X100000000Y-94440000D02*
X98820000Y-94440000D01*
X113500000Y-107000000D02*
X108000000Y-107000000D01*
X115000000Y-105500000D02*
X113500000Y-107000000D01*
X101500000Y-95940000D02*
X100000000Y-94440000D01*
X115000000Y-104000000D02*
X115000000Y-105500000D01*
X108000000Y-107000000D02*
X101500000Y-100500000D01*
%TO.N,/SDA*%
X86500000Y-66500000D02*
X84175000Y-66500000D01*
X93750000Y-59250000D02*
X86500000Y-66500000D01*
X93750000Y-66250000D02*
X93750000Y-57500000D01*
X93750000Y-57500000D02*
X93750000Y-59250000D01*
X84175000Y-66500000D02*
X84000000Y-66675000D01*
X98820000Y-69040000D02*
X96540000Y-69040000D01*
X96540000Y-69040000D02*
X93750000Y-66250000D01*
%TO.N,/SCL*%
X97000000Y-55000000D02*
X92500000Y-55000000D01*
X98820000Y-66500000D02*
X98820000Y-56820000D01*
X91250000Y-57500000D02*
X91250000Y-59250000D01*
X91250000Y-57500000D02*
X91250000Y-56250000D01*
X91250000Y-56250000D02*
X92500000Y-55000000D01*
X83000000Y-61500000D02*
X81000000Y-63500000D01*
X81000000Y-63500000D02*
X81000000Y-66675000D01*
X98820000Y-56820000D02*
X97000000Y-55000000D01*
X89000000Y-61500000D02*
X83000000Y-61500000D01*
X91250000Y-59250000D02*
X89000000Y-61500000D01*
%TO.N,/BUZZ*%
X88060000Y-94440000D02*
X91200000Y-94440000D01*
X80000000Y-104587500D02*
X80000000Y-102500000D01*
X80000000Y-102500000D02*
X88060000Y-94440000D01*
%TO.N,/DM1*%
X103500000Y-61000000D02*
X102500000Y-60000000D01*
X107000000Y-71500000D02*
X103500000Y-68000000D01*
X102500000Y-60000000D02*
X101000000Y-60000000D01*
X103500000Y-68000000D02*
X103500000Y-61000000D01*
X131525000Y-77450000D02*
X131525000Y-75025000D01*
X128000000Y-71500000D02*
X107000000Y-71500000D01*
X131525000Y-75025000D02*
X128000000Y-71500000D01*
%TO.N,/DM2*%
X104000000Y-73000000D02*
X102580000Y-71580000D01*
X127500000Y-74500000D02*
X126000000Y-73000000D01*
X131525000Y-82530000D02*
X129030000Y-82530000D01*
X102580000Y-71580000D02*
X98820000Y-71580000D01*
X127500000Y-81000000D02*
X127500000Y-74500000D01*
X126000000Y-73000000D02*
X104000000Y-73000000D01*
X129030000Y-82530000D02*
X127500000Y-81000000D01*
%TO.N,/S5*%
X105500000Y-81500000D02*
X103200000Y-79200000D01*
X105500000Y-95500000D02*
X105500000Y-81500000D01*
X120000000Y-92000000D02*
X120000000Y-89412500D01*
X103200000Y-79200000D02*
X98820000Y-79200000D01*
X120000000Y-92000000D02*
X120000000Y-93500000D01*
X107500000Y-97500000D02*
X105500000Y-95500000D01*
X116000000Y-97500000D02*
X107500000Y-97500000D01*
X120000000Y-93500000D02*
X116000000Y-97500000D01*
%TO.N,/S1*%
X110000000Y-92000000D02*
X110000000Y-89412500D01*
%TO.N,/S2*%
X112500000Y-92000000D02*
X112500000Y-89412500D01*
%TO.N,/S3*%
X106120000Y-74120000D02*
X108000000Y-76000000D01*
X114000000Y-94500000D02*
X115000000Y-93500000D01*
X108000000Y-93000000D02*
X109500000Y-94500000D01*
X109500000Y-94500000D02*
X114000000Y-94500000D01*
X108000000Y-76000000D02*
X108000000Y-93000000D01*
X115000000Y-93500000D02*
X115000000Y-92000000D01*
X115000000Y-92000000D02*
X115000000Y-89412500D01*
X98820000Y-74120000D02*
X106120000Y-74120000D01*
%TO.N,/S4*%
X117500000Y-92000000D02*
X117500000Y-93500000D01*
X106500000Y-94000000D02*
X106500000Y-78500000D01*
X117500000Y-92000000D02*
X117500000Y-89412500D01*
X117500000Y-93500000D02*
X115000000Y-96000000D01*
X108500000Y-96000000D02*
X106500000Y-94000000D01*
X104660000Y-76660000D02*
X98820000Y-76660000D01*
X115000000Y-96000000D02*
X108500000Y-96000000D01*
X106500000Y-78500000D02*
X104660000Y-76660000D01*
%TO.N,/RST1*%
X111500000Y-66500000D02*
X111500000Y-65000000D01*
X109925000Y-68075000D02*
X111500000Y-66500000D01*
X108000000Y-68075000D02*
X109925000Y-68075000D01*
%TO.N,/RST*%
X89000000Y-66500000D02*
X91200000Y-66500000D01*
X86500000Y-69000000D02*
X89000000Y-66500000D01*
X86500000Y-80500000D02*
X86500000Y-69000000D01*
%TO.N,Net-(BZ1--)*%
X70000000Y-108250000D02*
X78162500Y-108250000D01*
X78162500Y-108250000D02*
X80000000Y-106412500D01*
%TO.N,Net-(U1-XTAL1{slash}PB6)*%
X91200000Y-86820000D02*
X86070000Y-86820000D01*
X73750000Y-78250000D02*
X77500000Y-78250000D01*
X86070000Y-86820000D02*
X77500000Y-78250000D01*
X73050000Y-78950000D02*
X73750000Y-78250000D01*
X70000000Y-78950000D02*
X73050000Y-78950000D01*
%TO.N,Net-(U1-XTAL2{slash}PB7)*%
X70000000Y-86050000D02*
X73050000Y-86050000D01*
X91200000Y-89360000D02*
X80110000Y-89360000D01*
X73050000Y-86050000D02*
X73750000Y-86750000D01*
X80110000Y-89360000D02*
X77500000Y-86750000D01*
X73750000Y-86750000D02*
X77500000Y-86750000D01*
%TO.N,Net-(D1-K)*%
X71050000Y-68450000D02*
X71000000Y-68500000D01*
X74000000Y-68450000D02*
X71050000Y-68450000D01*
%TO.N,Net-(D2-K)*%
X81562500Y-95000000D02*
X75912500Y-95000000D01*
%TD*%
M02*
