M48
; DRILL file {KiCad 6.0.10-86aedd382b~118~ubuntu20.04.1} date Sat Feb 11 18:47:38 2023
; FORMAT={-:-/ absolute / metric / decimal}
; #@! TF.CreationDate,2023-02-11T18:47:38+05:30
; #@! TF.GenerationSoftware,Kicad,Pcbnew,6.0.10-86aedd382b~118~ubuntu20.04.1
; #@! TF.FileFunction,Plated,1,2,PTH
FMAT,2
METRIC
; #@! TA.AperFunction,Plated,PTH,ComponentDrill
T1C0.600
; #@! TA.AperFunction,Plated,PTH,ComponentDrill
T2C0.700
; #@! TA.AperFunction,Plated,PTH,ComponentDrill
T3C0.800
; #@! TA.AperFunction,Plated,PTH,ComponentDrill
T4C0.900
; #@! TA.AperFunction,Plated,PTH,ComponentDrill
T5C0.950
; #@! TA.AperFunction,Plated,PTH,ComponentDrill
T6C1.000
; #@! TA.AperFunction,Plated,PTH,ComponentDrill
T7C1.100
; #@! TA.AperFunction,Plated,PTH,ComponentDrill
T8C3.200
%
G90
G05
T1
X112.5Y-80.872
X112.5Y-82.872
T2
X92.5Y-101.0
X92.5Y-103.54
X95.5Y-65.46
X95.5Y-68.0
X112.46Y-70.5
X112.5Y-73.0
X112.5Y-75.5
X115.0Y-70.5
X115.04Y-73.0
X115.04Y-75.5
T3
X76.0Y-80.0
X83.62Y-80.0
X83.75Y-84.5
X83.75Y-89.5
X85.0Y-101.19
X85.0Y-108.81
X86.25Y-84.5
X86.25Y-89.5
X92.5Y-84.57
X92.5Y-89.45
X98.69Y-61.5
X98.69Y-102.5
X98.7Y-65.5
X98.7Y-68.04
X98.7Y-70.58
X98.7Y-73.12
X98.7Y-75.66
X98.7Y-78.2
X98.7Y-80.74
X98.7Y-83.28
X98.7Y-85.82
X98.7Y-88.36
X98.7Y-90.9
X98.7Y-93.44
X98.7Y-95.98
X98.7Y-98.52
X106.31Y-61.5
X106.31Y-102.5
X106.32Y-65.5
X106.32Y-68.04
X106.32Y-70.58
X106.32Y-73.12
X106.32Y-75.66
X106.32Y-78.2
X106.32Y-80.74
X106.32Y-83.28
X106.32Y-85.82
X106.32Y-88.36
X106.32Y-90.9
X106.32Y-93.44
X106.32Y-95.98
X106.32Y-98.52
X121.5Y-62.88
X121.5Y-70.5
X126.5Y-62.69
X126.5Y-70.31
T4
X80.0Y-73.745
X80.0Y-76.285
X113.0Y-99.5
X113.0Y-102.04
T5
X68.75Y-57.032
X71.25Y-57.032
X73.75Y-57.032
X76.25Y-57.032
X83.75Y-57.032
X86.25Y-57.032
X88.75Y-57.032
X91.25Y-57.032
X112.5Y-57.032
X115.0Y-57.032
X117.5Y-57.032
X120.0Y-57.032
T6
X75.0Y-101.75
X75.0Y-108.25
X111.21Y-85.92
X111.21Y-88.46
X111.21Y-91.0
X113.75Y-85.92
X113.75Y-88.46
X113.75Y-91.0
X131.525Y-76.92
X131.525Y-79.46
X131.525Y-82.0
X131.525Y-84.54
X131.525Y-87.08
T7
X99.25Y-52.75
X99.25Y-57.25
X105.75Y-52.75
X105.75Y-57.25
T8
X53.0Y-53.0
X53.0Y-109.0
X131.5Y-53.0
X131.5Y-109.0
T0
M30
