%TF.GenerationSoftware,KiCad,Pcbnew,6.0.10-86aedd382b~118~ubuntu20.04.1*%
%TF.CreationDate,2023-02-11T18:46:26+05:30*%
%TF.ProjectId,motor controller,6d6f746f-7220-4636-9f6e-74726f6c6c65,rev?*%
%TF.SameCoordinates,Original*%
%TF.FileFunction,Legend,Top*%
%TF.FilePolarity,Positive*%
%FSLAX46Y46*%
G04 Gerber Fmt 4.6, Leading zero omitted, Abs format (unit mm)*
G04 Created by KiCad (PCBNEW 6.0.10-86aedd382b~118~ubuntu20.04.1) date 2023-02-11 18:46:26*
%MOMM*%
%LPD*%
G01*
G04 APERTURE LIST*
%ADD10C,0.150000*%
%ADD11C,0.120000*%
G04 APERTURE END LIST*
D10*
%TO.C,BZ1*%
X73271428Y-108630952D02*
X73271428Y-107869047D01*
X73652380Y-108250000D02*
X72890476Y-108250000D01*
D11*
%TO.C,R1*%
X105770000Y-62870000D02*
X99230000Y-62870000D01*
X105770000Y-62540000D02*
X105770000Y-62870000D01*
X105770000Y-60460000D02*
X105770000Y-60130000D01*
X99230000Y-62870000D02*
X99230000Y-62540000D01*
X99230000Y-60130000D02*
X99230000Y-60460000D01*
X105770000Y-60130000D02*
X99230000Y-60130000D01*
%TO.C,R3*%
X76540000Y-81040000D02*
X76540000Y-81370000D01*
X76540000Y-78960000D02*
X76540000Y-78630000D01*
X83080000Y-78630000D02*
X83080000Y-78960000D01*
X83080000Y-81370000D02*
X83080000Y-81040000D01*
X76540000Y-78630000D02*
X83080000Y-78630000D01*
X76540000Y-81370000D02*
X83080000Y-81370000D01*
%TO.C,J2*%
X122610000Y-50222500D02*
X122610000Y-58642500D01*
X112500000Y-51942500D02*
X112820000Y-52022500D01*
X119680000Y-52022500D02*
X120000000Y-51942500D01*
X115320000Y-52022500D02*
X115320000Y-55442500D01*
X109890000Y-51442500D02*
X111110000Y-51442500D01*
X122610000Y-51442500D02*
X121390000Y-51442500D01*
X111110000Y-56442500D02*
X109890000Y-56442500D01*
X120320000Y-52022500D02*
X120320000Y-55442500D01*
X120320000Y-55442500D02*
X120000000Y-55442500D01*
X115000000Y-51942500D02*
X115320000Y-52022500D01*
X112200000Y-59132500D02*
X112800000Y-59132500D01*
X120000000Y-51942500D02*
X120320000Y-52022500D01*
X109890000Y-58642500D02*
X109890000Y-50222500D01*
X117180000Y-55442500D02*
X117180000Y-52022500D01*
X111110000Y-58642500D02*
X109890000Y-58642500D01*
X112800000Y-59132500D02*
X112500000Y-58532500D01*
X111110000Y-51442500D02*
X111110000Y-56442500D01*
X114680000Y-55442500D02*
X114680000Y-52022500D01*
X112180000Y-55442500D02*
X112180000Y-52022500D01*
X114680000Y-52022500D02*
X115000000Y-51942500D01*
X112820000Y-55442500D02*
X112500000Y-55442500D01*
X112500000Y-55442500D02*
X112180000Y-55442500D01*
X113670000Y-56442500D02*
X113830000Y-56442500D01*
X118670000Y-56442500D02*
X118830000Y-56442500D01*
X117820000Y-52022500D02*
X117820000Y-55442500D01*
X117820000Y-55442500D02*
X117500000Y-55442500D01*
X121390000Y-56442500D02*
X122610000Y-56442500D01*
X117180000Y-52022500D02*
X117500000Y-51942500D01*
X112820000Y-52022500D02*
X112820000Y-55442500D01*
X117500000Y-51942500D02*
X117820000Y-52022500D01*
X121390000Y-58642500D02*
X121390000Y-56442500D01*
X112180000Y-52022500D02*
X112500000Y-51942500D01*
X112500000Y-58532500D02*
X112200000Y-59132500D01*
X115320000Y-55442500D02*
X115000000Y-55442500D01*
X109890000Y-50222500D02*
X122610000Y-50222500D01*
X119680000Y-55442500D02*
X119680000Y-52022500D01*
X121390000Y-51442500D02*
X121390000Y-56442500D01*
X116170000Y-56442500D02*
X116330000Y-56442500D01*
X117500000Y-55442500D02*
X117180000Y-55442500D01*
X115000000Y-55442500D02*
X114680000Y-55442500D01*
X111110000Y-55442500D02*
X121390000Y-55442500D01*
X122610000Y-58642500D02*
X121390000Y-58642500D01*
X120000000Y-55442500D02*
X119680000Y-55442500D01*
X111110000Y-56442500D02*
X111110000Y-58642500D01*
%TO.C,R11*%
X120130000Y-69960000D02*
X120130000Y-63420000D01*
X122870000Y-69960000D02*
X122870000Y-63420000D01*
X120460000Y-69960000D02*
X120130000Y-69960000D01*
X120130000Y-63420000D02*
X120460000Y-63420000D01*
X122870000Y-63420000D02*
X122540000Y-63420000D01*
X122540000Y-69960000D02*
X122870000Y-69960000D01*
%TO.C,R10*%
X127870000Y-63230000D02*
X127540000Y-63230000D01*
X125460000Y-69770000D02*
X125130000Y-69770000D01*
X127870000Y-69770000D02*
X127870000Y-63230000D01*
X125130000Y-69770000D02*
X125130000Y-63230000D01*
X127540000Y-69770000D02*
X127870000Y-69770000D01*
X125130000Y-63230000D02*
X125460000Y-63230000D01*
%TO.C,D2*%
X111764000Y-102330000D02*
X111920000Y-102330000D01*
X114080000Y-102330000D02*
X114236000Y-102330000D01*
X114080000Y-101810961D02*
G75*
G03*
X114079837Y-99728870I-1080000J1040961D01*
G01*
X111921392Y-99097665D02*
G75*
G03*
X111764484Y-102330000I1078608J-1672335D01*
G01*
X111920163Y-99728870D02*
G75*
G03*
X111920000Y-101810961I1079837J-1041130D01*
G01*
X114235516Y-102330000D02*
G75*
G03*
X114078608Y-99097665I-1235516J1560000D01*
G01*
%TO.C,R8*%
X113380000Y-70500000D02*
X114000000Y-70500000D01*
X113380000Y-70500000D02*
G75*
G03*
X113380000Y-70500000I-920000J0D01*
G01*
%TO.C,J5*%
X88750000Y-55442500D02*
X88430000Y-55442500D01*
X88750000Y-51942500D02*
X89070000Y-52022500D01*
X89920000Y-56442500D02*
X90080000Y-56442500D01*
X84070000Y-55442500D02*
X83750000Y-55442500D01*
X87420000Y-56442500D02*
X87580000Y-56442500D01*
X90930000Y-52022500D02*
X91250000Y-51942500D01*
X88430000Y-55442500D02*
X88430000Y-52022500D01*
X83450000Y-59132500D02*
X84050000Y-59132500D01*
X86570000Y-55442500D02*
X86250000Y-55442500D01*
X83750000Y-51942500D02*
X84070000Y-52022500D01*
X83750000Y-55442500D02*
X83430000Y-55442500D01*
X84070000Y-52022500D02*
X84070000Y-55442500D01*
X83750000Y-58532500D02*
X83450000Y-59132500D01*
X92640000Y-56442500D02*
X93860000Y-56442500D01*
X85930000Y-52022500D02*
X86250000Y-51942500D01*
X84920000Y-56442500D02*
X85080000Y-56442500D01*
X89070000Y-52022500D02*
X89070000Y-55442500D01*
X93860000Y-51442500D02*
X92640000Y-51442500D01*
X83430000Y-52022500D02*
X83750000Y-51942500D01*
X86250000Y-55442500D02*
X85930000Y-55442500D01*
X89070000Y-55442500D02*
X88750000Y-55442500D01*
X82360000Y-56442500D02*
X82360000Y-58642500D01*
X81140000Y-58642500D02*
X81140000Y-50222500D01*
X91570000Y-52022500D02*
X91570000Y-55442500D01*
X93860000Y-50222500D02*
X93860000Y-58642500D01*
X88430000Y-52022500D02*
X88750000Y-51942500D01*
X91250000Y-51942500D02*
X91570000Y-52022500D01*
X91570000Y-55442500D02*
X91250000Y-55442500D01*
X91250000Y-55442500D02*
X90930000Y-55442500D01*
X92640000Y-58642500D02*
X92640000Y-56442500D01*
X90930000Y-55442500D02*
X90930000Y-52022500D01*
X93860000Y-58642500D02*
X92640000Y-58642500D01*
X82360000Y-55442500D02*
X92640000Y-55442500D01*
X81140000Y-50222500D02*
X93860000Y-50222500D01*
X82360000Y-58642500D02*
X81140000Y-58642500D01*
X92640000Y-51442500D02*
X92640000Y-56442500D01*
X81140000Y-51442500D02*
X82360000Y-51442500D01*
X82360000Y-51442500D02*
X82360000Y-56442500D01*
X85930000Y-55442500D02*
X85930000Y-52022500D01*
X84050000Y-59132500D02*
X83750000Y-58532500D01*
X86570000Y-52022500D02*
X86570000Y-55442500D01*
X83430000Y-55442500D02*
X83430000Y-52022500D01*
X82360000Y-56442500D02*
X81140000Y-56442500D01*
X86250000Y-51942500D02*
X86570000Y-52022500D01*
%TO.C,SW1*%
X99000000Y-54250000D02*
X99000000Y-55750000D01*
X104750000Y-51750000D02*
X100250000Y-51750000D01*
X106000000Y-55750000D02*
X106000000Y-54250000D01*
X100250000Y-58250000D02*
X104750000Y-58250000D01*
%TO.C,R5*%
X92500000Y-101920000D02*
X92500000Y-102540000D01*
X93420000Y-101000000D02*
G75*
G03*
X93420000Y-101000000I-920000J0D01*
G01*
%TO.C,D1*%
X81080000Y-76575000D02*
X81236000Y-76575000D01*
X78764000Y-76575000D02*
X78920000Y-76575000D01*
X81235516Y-76575000D02*
G75*
G03*
X81078608Y-73342665I-1235516J1560000D01*
G01*
X78921392Y-73342665D02*
G75*
G03*
X78764484Y-76575000I1078608J-1672335D01*
G01*
X81080000Y-76055961D02*
G75*
G03*
X81079837Y-73973870I-1080000J1040961D01*
G01*
X78920163Y-73973870D02*
G75*
G03*
X78920000Y-76055961I1079837J-1041130D01*
G01*
%TO.C,R9*%
X95500000Y-67080000D02*
X95500000Y-66460000D01*
X96420000Y-68000000D02*
G75*
G03*
X96420000Y-68000000I-920000J0D01*
G01*
%TO.C,C1*%
X110740000Y-80750980D02*
X111660000Y-80750980D01*
X113340000Y-81271980D02*
X114494000Y-81271980D01*
X113340000Y-81150980D02*
X114454000Y-81150980D01*
X110450000Y-81511980D02*
X111660000Y-81511980D01*
X113340000Y-81351980D02*
X114516000Y-81351980D01*
X111963000Y-79830980D02*
X113037000Y-79830980D01*
X110433000Y-81631980D02*
X111660000Y-81631980D01*
X110506000Y-81271980D02*
X111660000Y-81271980D01*
X111420000Y-80070980D02*
X111660000Y-80070980D01*
X110948000Y-80470980D02*
X111660000Y-80470980D01*
X110792000Y-80670980D02*
X111660000Y-80670980D01*
X113340000Y-80630980D02*
X114180000Y-80630980D01*
X111062000Y-80350980D02*
X111660000Y-80350980D01*
X110765000Y-80710980D02*
X111660000Y-80710980D01*
X111560000Y-79990980D02*
X113440000Y-79990980D01*
X111196000Y-80230980D02*
X111660000Y-80230980D01*
X113340000Y-80790980D02*
X114285000Y-80790980D01*
X113340000Y-80830980D02*
X114308000Y-80830980D01*
X113340000Y-80270980D02*
X113851000Y-80270980D01*
X110593000Y-81030980D02*
X111660000Y-81030980D01*
X113340000Y-81311980D02*
X114505000Y-81311980D01*
X113340000Y-81431980D02*
X114534000Y-81431980D01*
X113340000Y-80990980D02*
X114389000Y-80990980D01*
X110532000Y-81191980D02*
X111660000Y-81191980D01*
X110466000Y-81431980D02*
X111660000Y-81431980D01*
X113340000Y-80750980D02*
X114260000Y-80750980D01*
X110420000Y-81831980D02*
X114580000Y-81831980D01*
X110518000Y-81231980D02*
X111660000Y-81231980D01*
X110495000Y-81311980D02*
X111660000Y-81311980D01*
X113340000Y-81391980D02*
X114525000Y-81391980D01*
X110546000Y-81150980D02*
X111660000Y-81150980D01*
X113340000Y-81191980D02*
X114468000Y-81191980D01*
X111104000Y-80310980D02*
X111660000Y-80310980D01*
X111149000Y-80270980D02*
X111660000Y-80270980D01*
X113340000Y-80670980D02*
X114208000Y-80670980D01*
X113340000Y-81030980D02*
X114407000Y-81030980D01*
X113340000Y-80070980D02*
X113580000Y-80070980D01*
X111732000Y-79910980D02*
X113268000Y-79910980D01*
X111836000Y-79870980D02*
X113164000Y-79870980D01*
X111246000Y-80190980D02*
X111660000Y-80190980D01*
X113340000Y-80390980D02*
X113978000Y-80390980D01*
X113340000Y-80910980D02*
X114351000Y-80910980D01*
X110438000Y-81591980D02*
X111660000Y-81591980D01*
X110484000Y-81351980D02*
X111660000Y-81351980D01*
X113340000Y-81070980D02*
X114424000Y-81070980D01*
X113340000Y-80710980D02*
X114235000Y-80710980D01*
X113340000Y-80550980D02*
X114119000Y-80550980D01*
X113340000Y-80110980D02*
X113642000Y-80110980D01*
X111358000Y-80110980D02*
X111660000Y-80110980D01*
X113340000Y-81671980D02*
X114571000Y-81671980D01*
X113340000Y-80150980D02*
X113700000Y-80150980D01*
X113340000Y-80350980D02*
X113938000Y-80350980D01*
X110426000Y-81711980D02*
X114574000Y-81711980D01*
X110715000Y-80790980D02*
X111660000Y-80790980D01*
X110576000Y-81070980D02*
X111660000Y-81070980D01*
X110820000Y-80630980D02*
X111660000Y-80630980D01*
X111305000Y-84141781D02*
X111305000Y-83741781D01*
X113340000Y-81471980D02*
X114542000Y-81471980D01*
X113340000Y-81511980D02*
X114550000Y-81511980D01*
X110420000Y-81871980D02*
X114580000Y-81871980D01*
X110630000Y-80950980D02*
X111660000Y-80950980D01*
X110850000Y-80590980D02*
X111660000Y-80590980D01*
X113340000Y-81551980D02*
X114556000Y-81551980D01*
X113340000Y-80470980D02*
X114052000Y-80470980D01*
X113340000Y-80590980D02*
X114150000Y-80590980D01*
X111641000Y-79950980D02*
X113359000Y-79950980D01*
X113340000Y-80950980D02*
X114370000Y-80950980D01*
X113340000Y-80430980D02*
X114016000Y-80430980D01*
X113340000Y-80510980D02*
X114087000Y-80510980D01*
X110475000Y-81391980D02*
X111660000Y-81391980D01*
X113340000Y-81631980D02*
X114567000Y-81631980D01*
X113340000Y-81591980D02*
X114562000Y-81591980D01*
X111105000Y-83941781D02*
X111505000Y-83941781D01*
X110423000Y-81751980D02*
X114577000Y-81751980D01*
X111022000Y-80390980D02*
X111660000Y-80390980D01*
X110429000Y-81671980D02*
X111660000Y-81671980D01*
X110984000Y-80430980D02*
X111660000Y-80430980D01*
X113340000Y-80870980D02*
X114330000Y-80870980D01*
X110913000Y-80510980D02*
X111660000Y-80510980D01*
X110458000Y-81471980D02*
X111660000Y-81471980D01*
X110881000Y-80550980D02*
X111660000Y-80550980D01*
X111487000Y-80030980D02*
X113513000Y-80030980D01*
X113340000Y-81231980D02*
X114482000Y-81231980D01*
X113340000Y-81110980D02*
X114440000Y-81110980D01*
X111300000Y-80150980D02*
X111660000Y-80150980D01*
X113340000Y-80230980D02*
X113804000Y-80230980D01*
X112130000Y-79790980D02*
X112870000Y-79790980D01*
X110560000Y-81110980D02*
X111660000Y-81110980D01*
X110670000Y-80870980D02*
X111660000Y-80870980D01*
X110421000Y-81791980D02*
X114579000Y-81791980D01*
X113340000Y-80310980D02*
X113896000Y-80310980D01*
X113340000Y-80190980D02*
X113754000Y-80190980D01*
X110444000Y-81551980D02*
X111660000Y-81551980D01*
X110611000Y-80990980D02*
X111660000Y-80990980D01*
X110649000Y-80910980D02*
X111660000Y-80910980D01*
X110692000Y-80830980D02*
X111660000Y-80830980D01*
X114620000Y-81871980D02*
G75*
G03*
X114620000Y-81871980I-2120000J0D01*
G01*
%TO.C,Y1*%
X95025000Y-90210000D02*
X95025000Y-83810000D01*
X89975000Y-90210000D02*
X89975000Y-83810000D01*
X95025000Y-83810000D02*
G75*
G03*
X89975000Y-83810000I-2525000J0D01*
G01*
X89975000Y-90210000D02*
G75*
G03*
X95025000Y-90210000I2525000J0D01*
G01*
%TO.C,R4*%
X99230000Y-103870000D02*
X99230000Y-103540000D01*
X99230000Y-101130000D02*
X99230000Y-101460000D01*
X105770000Y-101130000D02*
X99230000Y-101130000D01*
X105770000Y-103540000D02*
X105770000Y-103870000D01*
X105770000Y-101460000D02*
X105770000Y-101130000D01*
X105770000Y-103870000D02*
X99230000Y-103870000D01*
%TO.C,BZ1*%
X81100000Y-105000000D02*
G75*
G03*
X81100000Y-105000000I-6100000J0D01*
G01*
%TO.C,C2*%
X86820000Y-85670000D02*
X83180000Y-85670000D01*
X86820000Y-83330000D02*
X83180000Y-83330000D01*
X86820000Y-83575000D02*
X86820000Y-83330000D01*
X83180000Y-85670000D02*
X83180000Y-85425000D01*
X83180000Y-83575000D02*
X83180000Y-83330000D01*
X86820000Y-85670000D02*
X86820000Y-85425000D01*
%TO.C,C3*%
X86820000Y-90670000D02*
X86820000Y-90425000D01*
X83180000Y-90670000D02*
X83180000Y-90425000D01*
X86820000Y-88575000D02*
X86820000Y-88330000D01*
X86820000Y-90670000D02*
X83180000Y-90670000D01*
X83180000Y-88575000D02*
X83180000Y-88330000D01*
X86820000Y-88330000D02*
X83180000Y-88330000D01*
%TO.C,J4*%
X68430000Y-55442500D02*
X68430000Y-52022500D01*
X74920000Y-56442500D02*
X75080000Y-56442500D01*
X67360000Y-51442500D02*
X67360000Y-56442500D01*
X66140000Y-51442500D02*
X67360000Y-51442500D01*
X68750000Y-58532500D02*
X68450000Y-59132500D01*
X76250000Y-55442500D02*
X75930000Y-55442500D01*
X66140000Y-50222500D02*
X78860000Y-50222500D01*
X68750000Y-55442500D02*
X68430000Y-55442500D01*
X66140000Y-58642500D02*
X66140000Y-50222500D01*
X67360000Y-56442500D02*
X67360000Y-58642500D01*
X69050000Y-59132500D02*
X68750000Y-58532500D01*
X78860000Y-50222500D02*
X78860000Y-58642500D01*
X67360000Y-56442500D02*
X66140000Y-56442500D01*
X74070000Y-52022500D02*
X74070000Y-55442500D01*
X68430000Y-52022500D02*
X68750000Y-51942500D01*
X71570000Y-52022500D02*
X71570000Y-55442500D01*
X72420000Y-56442500D02*
X72580000Y-56442500D01*
X73750000Y-55442500D02*
X73430000Y-55442500D01*
X77640000Y-58642500D02*
X77640000Y-56442500D01*
X75930000Y-55442500D02*
X75930000Y-52022500D01*
X73750000Y-51942500D02*
X74070000Y-52022500D01*
X77640000Y-56442500D02*
X78860000Y-56442500D01*
X76570000Y-55442500D02*
X76250000Y-55442500D01*
X77640000Y-51442500D02*
X77640000Y-56442500D01*
X76250000Y-51942500D02*
X76570000Y-52022500D01*
X69070000Y-52022500D02*
X69070000Y-55442500D01*
X73430000Y-55442500D02*
X73430000Y-52022500D01*
X71570000Y-55442500D02*
X71250000Y-55442500D01*
X67360000Y-55442500D02*
X77640000Y-55442500D01*
X74070000Y-55442500D02*
X73750000Y-55442500D01*
X78860000Y-51442500D02*
X77640000Y-51442500D01*
X69920000Y-56442500D02*
X70080000Y-56442500D01*
X69070000Y-55442500D02*
X68750000Y-55442500D01*
X73430000Y-52022500D02*
X73750000Y-51942500D01*
X68450000Y-59132500D02*
X69050000Y-59132500D01*
X71250000Y-51942500D02*
X71570000Y-52022500D01*
X68750000Y-51942500D02*
X69070000Y-52022500D01*
X70930000Y-55442500D02*
X70930000Y-52022500D01*
X67360000Y-58642500D02*
X66140000Y-58642500D01*
X76570000Y-52022500D02*
X76570000Y-55442500D01*
X70930000Y-52022500D02*
X71250000Y-51942500D01*
X75930000Y-52022500D02*
X76250000Y-51942500D01*
X71250000Y-55442500D02*
X70930000Y-55442500D01*
X78860000Y-58642500D02*
X77640000Y-58642500D01*
%TO.C,R6*%
X113420000Y-75500000D02*
X114040000Y-75500000D01*
X113420000Y-75500000D02*
G75*
G03*
X113420000Y-75500000I-920000J0D01*
G01*
%TO.C,R2*%
X83960000Y-108270000D02*
X83630000Y-108270000D01*
X86370000Y-108270000D02*
X86370000Y-101730000D01*
X86370000Y-101730000D02*
X86040000Y-101730000D01*
X83630000Y-101730000D02*
X83960000Y-101730000D01*
X86040000Y-108270000D02*
X86370000Y-108270000D01*
X83630000Y-108270000D02*
X83630000Y-101730000D01*
%TO.C,J1*%
X111210000Y-92330000D02*
X109880000Y-92330000D01*
X112480000Y-89730000D02*
X109880000Y-89730000D01*
X109880000Y-92330000D02*
X109880000Y-91000000D01*
X109880000Y-89730000D02*
X109880000Y-84590000D01*
X115080000Y-84590000D02*
X109880000Y-84590000D01*
X115080000Y-92330000D02*
X112480000Y-92330000D01*
X112480000Y-92330000D02*
X112480000Y-89730000D01*
X115080000Y-92330000D02*
X115080000Y-84590000D01*
%TO.C,R7*%
X113420000Y-73000000D02*
X114040000Y-73000000D01*
X113420000Y-73000000D02*
G75*
G03*
X113420000Y-73000000I-920000J0D01*
G01*
%TO.C,U1*%
X99860000Y-99850000D02*
X105160000Y-99850000D01*
X105160000Y-99850000D02*
X105160000Y-64170000D01*
X105160000Y-64170000D02*
X103510000Y-64170000D01*
X101510000Y-64170000D02*
X99860000Y-64170000D01*
X99860000Y-64170000D02*
X99860000Y-99850000D01*
X101510000Y-64170000D02*
G75*
G03*
X103510000Y-64170000I1000000J0D01*
G01*
%TD*%
M02*
